<?xml version="1.0" encoding="utf-8"?>
<!-- Generator: Adobe Illustrator 19.0.0, SVG Export Plug-In . SVG Version: 6.00 Build 0)  -->
<svg version="1.1" id="Ebene_1" xmlns="http://www.w3.org/2000/svg" xmlns:xlink="http://www.w3.org/1999/xlink" x="0px" y="0px"
	 viewBox="98.3 63.5 786 728.8" style="enable-background:new 98.3 63.5 786 728.8;" xml:space="preserve">
<style type="text/css">
	.st0{fill:#6C63FF;}
	.st1{opacity:0.1;fill:#6C63FF;enable-background:new    ;}
	.st2{opacity:0.5;enable-background:new    ;}
	.st3{fill:#FFFFFF;}
	.st4{opacity:0.5;fill:#FFFFFF;enable-background:new    ;}
	.st5{fill:#444053;}
	.st6{opacity:0.5;}
	.st7{opacity:0.1;enable-background:new    ;}
</style>
<title>heartbroken</title>
<path class="st0" d="M884.2,300.4c0,0.6,0,1.3,0,2c0,0.9,0,1.7-0.1,2.6c-0.1,0.9,0,1.4-0.1,2.1c-0.2,3.6-0.4,7.1-0.7,10.7
	c-0.5,5.3,0,0.1,0,0.1c-0.1,1-0.2,1.9-0.3,2.9c-0.1,0.6-0.1,1.2-0.2,1.9c-0.1,0.7-0.1,1.1-0.2,1.6c0,0.1,0,0.3,0,0.4
	c-0.2,1.4-0.3,2.7-0.5,4.1c-0.2,1.4-0.3,2.6-0.5,3.8c-0.1,0.6-0.2,1.1-0.3,1.7c-0.1,0.8-0.3,1.6-0.4,2.5c-0.1,0.6-0.2,1.2-0.3,1.8
	c-0.5,2.7-1,5.4-1.6,8c-0.1,0.6-0.3,1.2-0.4,1.9c-0.2,0.9-0.4,1.7-0.6,2.6c-0.3,1.5-0.7,2.9-1.1,4.4c-0.2,0.8-0.4,1.7-0.7,2.5
	c-0.2,0.6-0.3,1.2-0.5,1.8c-0.4,1.5-0.8,2.9-1.3,4.4c-0.2,0.6-0.3,1.1-0.5,1.7c-0.3,1-0.6,2-1,3s-0.7,2.2-1.1,3.3
	c-0.4,1.1-0.7,2-1,3c-0.2,0.6-0.4,1.2-0.7,1.9c-0.3,0.7-0.5,1.4-0.8,2.1c-0.7,1.9-1.5,3.8-2.2,5.7c-0.3,0.9-0.7,1.7-1.1,2.6
	c-0.4,0.9-0.7,1.6-1,2.3c-0.5,1.1-1,2.2-1.5,3.3c-0.4,0.9-0.8,1.8-1.2,2.6c-0.9,2-1.9,3.9-2.8,5.9c-0.4,0.8-0.8,1.7-1.3,2.5
	c-0.9,1.8-1.9,3.6-2.9,5.4c-0.2,0.4-0.4,0.7-0.6,1c-0.3,0.6-0.7,1.2-1,1.8l-0.3,0.5c-0.7,1.2-1.4,2.5-2.2,3.7
	c-0.4,0.7-0.8,1.3-1.2,2c-0.6,0.9-1.1,1.9-1.7,2.8c-0.4,0.7-0.8,1.4-1.3,2c-0.3,0.5-0.6,1-0.9,1.4c-0.7,1.1-1.4,2.1-2.1,3.1
	c-1.4,2.1-2.9,4.2-4.4,6.3l0.5,0.4l-25.2,29.9l-59.2,70.3l-81.3,96.6L664,643.6l-71.4,85.1L565,761.5l0,0l-24.8,29.6l-1.1,1.2
	l-0.2-0.2l-2.5-2.1l-2.3-1.9l-6.6-5.6l-27.8-23.4l-13.8-11.6l-9.3-7.8l-12.3-10.3l-2-1.7l-7.6-6.5l-7.4-6.2l-29-24.4l-14.6-12.3
	l-5.3-4.4l-2.4-2l-12.5-10.6l-21.4-18l-2.8-2.3l-0.3-0.2l-8.9-7.5l-11.1-9.5l-12.4-10.4l-2.2-1.8l-6.2-5.2l0,0l0,0l-8.4-7.1l0,0
	l-23.4-19.7l-3.7-3.1l-0.6-0.5l-14.3-12.3l-9.4-7.9L255,553l-1.7-1.5l0,0l-5.6-4.8l-17.2-14.5L181.6,491c-0.9-0.7-1.7-1.5-2.5-2.2
	l-0.5-0.4l-0.2-0.2c-0.9-0.8-1.7-1.5-2.6-2.3c-0.6-0.5-1.2-1-1.7-1.6l-0.4-0.4l-0.5-0.5l-1.2-1.1l-0.1-0.1l-0.2-0.1
	c-0.7-0.7-1.4-1.4-2.1-2l-1-0.9l-0.7-0.7c-0.4-0.4-0.8-0.8-1.1-1.1l-0.1-0.1c-1.2-1.2-2.3-2.4-3.5-3.5l-1.5-1.5
	c-0.5-0.5-1-1.1-1.5-1.6l-0.8-0.9c-0.4-0.5-0.8-0.9-1.3-1.4c-0.2-0.3-0.5-0.5-0.7-0.8l-1.2-1.3c-0.7-0.8-1.4-1.6-2.1-2.4
	c-0.5-0.5-0.9-1.1-1.4-1.6l-0.3-0.4c-0.7-0.8-1.3-1.6-1.9-2.3l-0.3-0.4c-0.5-0.7-1.1-1.3-1.6-2c-0.3-0.4-0.6-0.7-0.9-1.1
	s-0.7-0.9-1.1-1.4s-0.6-0.7-0.9-1.1c-0.1-0.1-0.1-0.2-0.2-0.3c-0.6-0.7-1.1-1.5-1.7-2.2l-0.3-0.4l-0.3-0.5l-0.6-0.8l-0.3-0.4
	l-0.5-0.7l-0.6-0.9l-0.3-0.4l-0.4-0.6c-0.5-0.7-0.9-1.3-1.4-2l-1-1.4c-0.6-0.9-1.2-1.7-1.7-2.6l-0.1-0.2c-0.6-0.9-1.2-1.9-1.8-2.8
	l-0.2-0.3c-0.1-0.2-0.2-0.3-0.3-0.5c-0.6-0.9-1.2-1.9-1.7-2.8c-0.4-0.7-0.8-1.4-1.3-2.1l-0.4-0.7l-1.2-2.1c-0.2-0.3-0.4-0.6-0.5-0.9
	l-0.3-0.6l-0.4-0.7l-0.3-0.6c-0.1-0.1-0.1-0.3-0.2-0.4c-0.4-0.7-0.8-1.4-1.1-2c0,0,0-0.1-0.1-0.1c-0.3-0.6-0.6-1.2-1-1.8
	c-0.4-0.8-0.9-1.7-1.3-2.5l-1-2c-0.3-0.5-0.5-1-0.7-1.5c-0.2-0.3-0.3-0.7-0.5-1s-0.3-0.6-0.4-0.8c0-0.1-0.1-0.2-0.1-0.3l-0.1-0.3
	l-0.2-0.4l-0.8-1.7c-0.1-0.1-0.1-0.2-0.1-0.3c-0.2-0.5-0.4-0.9-0.7-1.4c-0.1-0.3-0.3-0.5-0.4-0.8l-0.9-2l-0.4-0.8
	c-0.1-0.2-0.2-0.4-0.3-0.7c-0.3-0.7-0.6-1.4-0.9-2.2c-0.2-0.5-0.5-1.1-0.7-1.6c-0.2-0.4-0.3-0.7-0.4-1.1c-0.4-0.9-0.7-1.8-1.1-2.7
	c-0.1-0.3-0.3-0.7-0.4-1l-0.1-0.2c0-0.1-0.1-0.1-0.1-0.2l-0.1-0.2l-0.1-0.3c-0.1-0.3-0.2-0.5-0.3-0.8s-0.2-0.5-0.3-0.7
	c-0.3-0.8-0.6-1.5-0.8-2.3c-0.4-1.1-0.8-2.2-1.2-3.4c0-0.1,0-0.2-0.1-0.2c-0.2-0.5-0.4-1.1-0.6-1.6c-0.9-2.7-1.7-5.3-2.5-8
	c-0.4-1.5-0.9-3-1.3-4.5L106,372c-0.4-1.5-0.8-3-1.1-4.5l-0.5-2.3c-0.3-1.5-0.7-3-1-4.4l-0.1-0.1c-0.1-0.7-0.3-1.3-0.4-2l-0.4-2.3
	c-0.1-0.6-0.2-1.2-0.3-1.8c-0.2-1.1-0.4-2.1-0.6-3.2c-0.1-0.6-0.2-1.3-0.3-1.9c-0.3-1.5-0.5-3.1-0.7-4.6c-0.1-0.7-0.2-1.5-0.3-2.2
	c0-0.1,0-0.3-0.1-0.4c-0.2-1.4-0.4-2.9-0.5-4.3c-0.1-0.8-0.2-1.5-0.2-2.3c-0.1-0.8-0.2-1.5-0.2-2.3c-0.4-4-0.6-8-0.8-11.9
	c0-0.8-0.1-1.7-0.1-2.5c-0.1-2.2-0.1-4.3-0.1-6.5c0-1.4,0-2.9,0-4.3c0-1.4,0.1-2.8,0.1-4.1c0-0.1,0-0.2,0-0.3c0-1.4,0.1-2.8,0.2-4.2
	s0.2-2.9,0.3-4.3c0-0.1,0-0.1,0-0.2c0.1-1.4,0.2-2.8,0.3-4.1c0.1-1.4,0.3-2.9,0.4-4.3l0,0c0.2-1.3,0.3-2.6,0.5-4
	c0-0.2,0-0.3,0.1-0.5c0.2-1.4,0.4-2.7,0.6-4.1c0.2-1.7,0.5-3.4,0.8-5.1c0.3-1.7,0.6-3.5,1-5.3c0.2-0.8,0.3-1.6,0.5-2.4
	c0.3-1.3,0.5-2.6,0.8-3.9c0.1-0.6,0.3-1.2,0.4-1.8s0.3-1.2,0.4-1.8c0.3-1.3,0.6-2.6,1-3.9c0.1-0.5,0.2-1,0.4-1.4
	c0.3-1.1,0.6-2.2,0.9-3.3s0.6-2.2,1-3.4s0.6-2.1,1-3.1c0.2-0.6,0.3-1.1,0.5-1.7c0-0.1,0-0.1,0-0.1c0.3-1,0.6-2,1-2.9
	c0.1-0.2,0.2-0.5,0.2-0.7c0.4-1.2,0.8-2.4,1.2-3.5l0,0c0.5-1.3,1-2.7,1.5-4c0.3-0.7,0.5-1.4,0.8-2.1c0.1-0.4,0.3-0.7,0.4-1.1
	c0.3-0.8,0.6-1.6,1-2.4c0.2-0.6,0.5-1.2,0.7-1.8c1.3-3,2.6-6,4-8.9c2.5-5.6,5.3-11,8.3-16.4c0.5-0.8,0.9-1.6,1.4-2.5
	c0.5-0.9,1-1.6,1.5-2.4c0.4-0.8,1-1.6,1.5-2.4c2.5-4,5.1-8,7.9-12c0.5-0.7,1-1.4,1.5-2l1.4-1.9c2-2.7,4.1-5.4,6.2-8.1
	c0.5-0.7,1.1-1.3,1.6-2c0.5-0.7,1.1-1.3,1.6-2c1.3-1.6,2.7-3.1,4-4.7c0.9-1,1.7-1.9,2.6-2.9c1.9-2,3.7-4,5.7-6
	c0.7-0.7,1.4-1.5,2.2-2.2c0.1-0.1,0.2-0.2,0.4-0.4c0.7-0.7,1.3-1.3,2-2l0.9-0.8l1.7-1.6l1-1l1.6-1.5c0.8-0.7,1.6-1.5,2.5-2.2
	l1.5-1.3l1.9-1.6c0.4-0.3,0.7-0.6,1.1-0.9c1.8-1.5,3.6-2.9,5.4-4.4c0.3-0.3,0.7-0.5,1-0.8c0.7-0.6,1.4-1.1,2.1-1.6l1.5-1.2
	c1.7-1.3,3.4-2.5,5.1-3.7l1.7-1.2l2.6-1.8l2.6-1.8l1.9-1.2c0.5-0.3,0.9-0.6,1.4-0.9l1.1-0.7c0.8-0.5,1.7-1,2.5-1.5
	c0.4-0.2,0.8-0.5,1.2-0.7c0.9-0.5,1.8-1.1,2.7-1.6l1.6-0.9c2-1.1,4-2.2,6.1-3.3l2.4-1.3l0,0l1.9-1c3-1.5,6.1-3,9.3-4.4l2.1-0.9
	c0.9-0.4,1.9-0.8,2.8-1.2l3.2-1.3c0.9-0.4,1.8-0.7,2.7-1l0.1-0.1l2-0.8l3.5-1.3c1.1-0.4,2.3-0.8,3.4-1.2l0.3-0.1
	c0.8-0.3,1.6-0.5,2.4-0.8c0.4-0.1,0.9-0.3,1.3-0.4c1-0.3,2-0.6,3-1l0.8-0.2c1.1-0.3,2.2-0.7,3.3-1l0,0c0.3-0.1,0.6-0.2,0.9-0.2
	c0.9-0.3,1.8-0.5,2.8-0.8l0.9-0.2l2.5-0.7c3.1-0.8,6.1-1.5,9.2-2.1c1.2-0.3,2.4-0.5,3.5-0.7h0.1c1.1-0.2,2.3-0.4,3.4-0.6l0.8-0.1
	c1.2-0.2,2.4-0.4,3.7-0.6l0.6-0.1c1-0.2,2-0.3,3-0.5l0.9-0.1c1.2-0.2,2.4-0.3,3.6-0.5h0.2l3.5-0.4l1-0.1l3-0.3l1-0.1l3.4-0.3h0.3
	c1.2-0.1,2.5-0.2,3.7-0.2c1.2-0.1,2.3-0.1,3.5-0.1l1.6-0.1c1.1,0,2.2-0.1,3.4-0.1c1.4,0,2.7,0,4.1,0c1.2,0,2.4,0,3.6,0
	s2.4,0,3.6,0.1c2,0.1,4,0.1,6,0.3l1.8,0.1c1.8,0.1,3.7,0.2,5.5,0.4c0.5,0,0.9,0,1.4,0.1c2.1,0.2,4.2,0.4,6.3,0.7
	c2.5,0.3,5,0.6,7.4,1c1.2,0.2,2.3,0.4,3.5,0.6s2.3,0.4,3.5,0.6c2.6,0.5,5.3,1,7.9,1.6l2.4,0.5l2.1,0.5l2,0.5
	c1.1,0.3,2.2,0.6,3.3,0.9c2.1,0.6,4.3,1.2,6.4,1.8c3.7,1.1,7.3,2.3,11,3.6c1,0.4,2.1,0.7,3.1,1.1L413,93c1,0.4,2.1,0.8,3.1,1.2
	s2,0.8,3,1.2l1,0.4l2.9,1.3c1.2,0.5,2.4,1,3.6,1.5l3.1,1.4l0,0c1.1,0.5,2.2,1,3.3,1.6c0.8,0.4,1.7,0.8,2.5,1.2
	c1.1,0.5,2.3,1.1,3.4,1.7l1.5,0.8l2.2,1.2l0.3,0.2c8.8,4.8,17.3,10.1,25.4,15.9l2.3,1.6c1.4,1,2.8,2.1,4.2,3.2l1.3,1
	c2.2,1.7,4.4,3.5,6.5,5.3l0.5,0.4c0.7-0.8,1.5-1.5,2.2-2.2c1.3-1.3,2.6-2.6,3.9-3.8c0.7-0.7,1.4-1.3,2.1-2c0.7-0.7,1.2-1.1,1.8-1.7
	c0.8-0.7,1.6-1.4,2.4-2.2c0.6-0.6,1.3-1.1,1.9-1.7c0.8-0.7,1.6-1.4,2.4-2l2.2-1.8c0.7-0.6,1.4-1.1,2.1-1.7c2-1.6,4-3.2,6.1-4.8
	c0.7-0.5,1.4-1.1,2.2-1.6c0.4-0.3,0.8-0.6,1.2-0.8l1.8-1.3c0.8-0.5,1.5-1.1,2.3-1.6l2.2-1.5l2.1-1.4c2.3-1.5,4.7-3,7-4.4
	c0.5-0.3,0.9-0.6,1.4-0.9c1.5-0.9,2.9-1.7,4.4-2.6c0.8-0.5,1.7-1,2.5-1.4c2.4-1.3,4.8-2.6,7.2-3.8l1.6-0.8l1.6-0.8
	c0.9-0.4,1.8-0.8,2.6-1.3c0.8-0.5,1.8-0.8,2.6-1.2l2.7-1.2c0.9-0.4,1.8-0.8,2.7-1.2s1.9-0.8,2.9-1.2l2.5-1c0.9-0.4,1.8-0.7,2.7-1
	l2.6-1h0.1c1.8-0.7,3.6-1.3,5.4-1.9l2.8-0.9l2.7-0.9c0.9-0.3,1.8-0.6,2.8-0.8l2.5-1c1.8-0.5,3.7-1,5.6-1.5l2.8-0.7
	c1.9-0.5,3.7-0.9,5.6-1.3c1.9-0.4,3.7-0.8,5.6-1.2c1.9-0.4,3.8-0.7,5.7-1.1l2.9-0.5c2.1-0.3,4.3-0.6,6.4-0.9l3.2-0.4
	c3.2-0.4,6.4-0.7,9.6-0.9c2.2-0.2,4.3-0.3,6.4-0.4c4.4-0.2,8.8-0.3,13.3-0.3c0.4,0,0.9,0,1.3,0h1.8c0.9,0,1.7,0,2.6,0.1l2.2,0.1
	c0.9,0,1.8,0.1,2.8,0.1s1.7,0.1,2.5,0.1l2.5,0.2c0.8,0,1.7,0.1,2.5,0.2l1.8,0.2c1,0.1,2.1,0.2,3.2,0.3c0.3,0,0.5,0,0.8,0.1
	c0.9,0.1,1.9,0.2,2.8,0.3l1.4,0.2c0.9,0.1,1.8,0.2,2.7,0.4l2,0.3c1.1,0.2,2.2,0.3,3.3,0.5s2.2,0.4,3.2,0.5c1.2,0.2,2.5,0.5,3.7,0.7
	c0.7,0.1,1.4,0.3,2.1,0.4c0.9,0.2,1.8,0.4,2.7,0.6c0.6,0.1,1.2,0.3,1.8,0.4c0.6,0.1,0.9,0.2,1.3,0.3l3.9,0.9l0.7,0.2l1.6,0.4
	l3.5,0.9c1.3,0.4,2.7,0.7,4,1.1h0.1l2.8,0.8l3.7,1.2c2.1,0.7,4.1,1.4,6.2,2.1c0.6,0.2,1.3,0.5,1.9,0.7c5.7,2.1,11.4,4.5,17,7.1
	c0.7,0.3,1.3,0.6,2,0.9c4.8,2.3,9.5,4.7,14.2,7.3l1.6,0.9c0.9,0.5,1.8,1,2.6,1.5c1.5,0.9,3.1,1.9,4.6,2.8l1.9,1.2
	c0.2,0.1,0.4,0.3,0.7,0.4c3.6,2.3,7.1,4.7,10.6,7.2h0.1c0.7,0.5,1.3,0.9,1.9,1.4c0.9,0.7,1.8,1.3,2.7,2l1.4,1.1l0.8,0.6
	c1.4,1.1,2.8,2.2,4.1,3.3l1.6,1.3l1.6,1.3c0.8,0.7,1.6,1.4,2.5,2.1c1.4,1.2,2.8,2.4,4.1,3.6c0.5,0.5,1.1,1,1.6,1.5l0.3,0.3l0.6,0.6
	c1.8,1.7,3.5,3.4,5.3,5.1c0.7,0.7,1.4,1.4,2.1,2.1c0.5,0.5,0.9,1,1.4,1.4c1.1,1.1,2.2,2.3,3.3,3.5l1.2,1.3c2.4,2.7,4.8,5.4,7.1,8.1
	c0.6,0.7,1.1,1.3,1.7,2c0.4,0.4,0.7,0.9,1.1,1.4c0.4,0.5,0.7,0.9,1.1,1.4c0.1,0.1,0.2,0.2,0.3,0.3c0.4,0.5,0.8,1,1.2,1.6
	c0.7,0.9,1.3,1.7,2,2.6c0.8,1.1,1.6,2.1,2.3,3.2c0.6,0.8,1.2,1.7,1.8,2.6c0.7,1,1.4,2.1,2.2,3.1c1.4,2.1,2.8,4.2,4.1,6.3l0,0
	c0.7,1.1,1.3,2.1,2,3.2c0.7,1.1,1.3,2.1,1.9,3.2c0.6,1.1,1.3,2.2,1.9,3.2c0.6,1,1.1,2,1.7,3c1.8,3.2,3.4,6.4,5,9.7
	c0.3,0.5,0.5,1.1,0.8,1.6c0.3,0.7,0.7,1.4,1,2.1l0.1,0.3c0.4,1,0.9,1.9,1.3,2.9c0.6,1.3,1.1,2.5,1.7,3.8c0.3,0.8,0.7,1.6,1,2.4
	c1.2,2.9,2.3,5.8,3.4,8.7c0.3,0.7,0.5,1.3,0.7,2c0.2,0.7,0.4,1.2,0.6,1.8c0.3,0.9,0.6,1.8,0.9,2.7c0.2,0.7,0.5,1.3,0.7,2
	c0.2,0.7,0.4,1.1,0.5,1.7c0.6,2,1.2,4,1.8,6c0.2,0.5,0.3,1,0.4,1.5c0.2,0.9,0.5,1.7,0.7,2.6c0.3,1.2,0.6,2.4,0.9,3.6
	s0.6,2.3,0.8,3.4c0,0.1,0,0.1,0,0.2c0.2,0.8,0.4,1.6,0.5,2.4l0.3,1.5c0.3,1.4,0.6,2.8,0.9,4.2c0.2,0.9,0.3,1.8,0.5,2.7
	c0.3,1.4,0.5,2.8,0.7,4.2c0.2,0.9,0.3,1.8,0.4,2.7c0,0.2,0.1,0.4,0.1,0.7c0.1,0.9,0.3,1.7,0.4,2.6c0,0.3,0.1,0.6,0.1,0.9
	c0.1,1,0.3,2,0.4,3c0.2,1.4,0.3,2.8,0.5,4.1c0.3,3,0.6,6,0.8,9c0.1,1,0.1,2.1,0.2,3.1c0.1,1,0.1,2.1,0.1,3.1c0,0.8,0.1,1.5,0.1,2.3
	C884.2,293.6,884.2,297,884.2,300.4z"/>
<path class="st1" d="M853.6,412.9c-0.7,1.2-1.4,2.5-2.2,3.7c-0.4,0.7-0.8,1.3-1.2,2c-0.6,0.9-1.1,1.9-1.7,2.8
	c-0.4,0.7-0.8,1.4-1.3,2c-0.3,0.5-0.6,1-0.9,1.4c-0.7,1.1-1.4,2.1-2.1,3.1c-1.4,2.1-2.9,4.2-4.4,6.3l0.5,0.4l-25.1,29.9L756,534.8
	c-11.2,2.6-22.5,4.9-34,6.8c-36.8,6-75.9,11.9-116,17.1l-7.3,0.9l-0.7,0.1l-1.3,0.2l-6.9,0.9c-2.9,0.4-5.8,0.7-8.7,1.1
	c-2.1,0.3-4.3,0.5-6.4,0.8L572,563c-45.7,5.4-92,9.9-137.1,12.5l-2.6,0.2c-3.6,0.2-7.1,0.4-10.7,0.6c-5.3,0.3-10.6,0.5-15.9,0.8
	c-21.2,0.9-42,1.3-62.2,1.3c-4.8,0-9.6,0-14.4-0.1l-4.7-0.1h-2c-3.3-0.1-6.5-0.2-9.7-0.3c-5.4-0.2-10.8-0.4-16.2-0.6
	c-2.7-0.1-5.4-0.3-8.1-0.4l-5.6-0.3l-0.6-0.5l-14.6-12.4l-9.4-7.9l-3.4-2.8l-1.7-1.5l0,0l-5.7-4.8l-17.1-14.4l-48.9-41.2
	c-0.9-0.7-1.7-1.5-2.5-2.2l-0.5-0.4l-0.2-0.2c-0.9-0.8-1.7-1.5-2.6-2.3c-0.6-0.5-1.2-1-1.7-1.6l-0.4-0.4l-0.5-0.5l-1.2-1.1l-0.1-0.1
	l-0.2-0.1c-0.7-0.7-1.4-1.4-2.1-2l-0.3-0.3l-1.4-1.4c-0.4-0.4-0.7-0.7-1.1-1.1l-0.1-0.1c-1.2-1.2-2.3-2.4-3.5-3.5l-1.5-1.5
	c-0.5-0.5-1-1.1-1.5-1.6l-0.8-0.9c-0.4-0.5-0.9-0.9-1.3-1.4c-0.2-0.3-0.5-0.5-0.7-0.8l-1.2-1.3c-0.7-0.8-1.4-1.6-2.1-2.4
	c-0.5-0.5-0.9-1.1-1.4-1.6l-0.3-0.4l-0.3-0.3c-0.5-0.7-1.1-1.3-1.6-2l-0.3-0.4c-0.5-0.7-1.1-1.3-1.6-2c-0.3-0.4-0.6-0.7-0.9-1.1
	s-0.7-0.9-1.1-1.4s-0.6-0.7-0.9-1.1c-0.1-0.1-0.1-0.2-0.2-0.3l-1-1.6l-0.4-0.6l-0.3-0.4l-0.4-0.5l-0.6-0.8l-0.3-0.4l-0.5-0.7
	l-0.6-0.9l-0.3-0.4l-0.4-0.6c-0.5-0.7-0.9-1.3-1.4-2l-1-1.4c-0.6-0.9-1.1-1.7-1.7-2.6l-0.1-0.2c-0.6-0.9-1.2-1.9-1.8-2.8l-0.2-0.3
	c-0.1-0.2-0.2-0.3-0.3-0.5c-0.6-0.9-1.2-1.9-1.7-2.8c-0.4-0.7-0.8-1.4-1.3-2.1l-0.4-0.7l-1.2-2.1c-0.2-0.3-0.4-0.6-0.5-0.9l-0.3-0.6
	l-0.4-0.7l-0.1-0.1l-0.3-0.5c-0.1-0.1-0.1-0.3-0.2-0.4c-0.4-0.7-0.8-1.4-1.1-2l-0.1-0.1c-0.3-0.6-0.6-1.2-1-1.8
	c-0.4-0.8-0.9-1.7-1.3-2.5l-1-2c-0.3-0.5-0.5-1-0.7-1.5c-0.2-0.3-0.3-0.7-0.5-1s-0.3-0.6-0.4-0.8c0-0.1-0.1-0.2-0.1-0.3l-0.1-0.3
	l-0.2-0.4l-0.8-1.7c-0.1-0.1-0.1-0.2-0.1-0.3c-0.2-0.5-0.4-0.9-0.7-1.4c-0.1-0.3-0.3-0.5-0.4-0.8l-0.9-2l-0.4-0.8
	c-0.1-0.2-0.2-0.4-0.3-0.7l140.1,1.4h1.3h5l10,0.1l7.5,0.1h2l7,0.1l44.9,0.5l58.9,0.6l0,0l54.1,0.5h2.4l6.7,0.1l9.2,0.1h6.3h1.2h0.8
	l6.4,0.1L853.6,412.9z"/>
<path class="st1" d="M837.7,157.1H157.3c0.9-1,1.7-1.9,2.6-2.9c1.9-2,3.7-4,5.7-6c0.7-0.7,1.5-1.5,2.2-2.2c0.1-0.1,0.2-0.2,0.4-0.4
	c0.7-0.7,1.3-1.3,2-2l0.9-0.8l1.7-1.6l1-1l1.5-1.5c0.8-0.7,1.6-1.5,2.5-2.2l1.5-1.3l1.9-1.6c0.4-0.3,0.7-0.6,1.1-0.9
	c1.8-1.5,3.6-2.9,5.4-4.4c0.3-0.3,0.7-0.5,1-0.8c0.7-0.6,1.4-1.1,2.1-1.6l1.6-1.2c1.7-1.3,3.4-2.5,5.1-3.7l1.7-1.2l2.7-1.8l2.6-1.8
	l1.9-1.2c0.5-0.3,0.9-0.6,1.4-0.9l1.1-0.7c0.8-0.5,1.7-1,2.5-1.5c0.4-0.2,0.8-0.5,1.2-0.7c0.9-0.5,1.8-1.1,2.7-1.6l1.6-0.9
	c2-1.1,4-2.2,6.1-3.3l2.4-1.3l0,0l1.9-1c3-1.5,6.1-3,9.3-4.4l2.1-0.9c0.9-0.4,1.9-0.8,2.8-1.2l3.2-1.3c0.9-0.4,1.8-0.7,2.7-1
	l0.1-0.1l2-0.8l3.5-1.3c1.1-0.4,2.3-0.8,3.4-1.2l0.3-0.1c0.8-0.3,1.6-0.5,2.4-0.8c0.4-0.1,0.9-0.3,1.3-0.4c1-0.3,2-0.6,3-1l0.8-0.2
	c1.1-0.3,2.2-0.7,3.3-1l0,0c58.7,13.2,118.7,18.4,175.3,19c8.8,4.8,17.3,10.1,25.4,15.9l2.3,1.8c1.4,1,2.8,2.1,4.2,3.2l1.3,1
	c2.2,1.7,4.4,3.5,6.5,5.3l0.5,0.4c0.7-0.8,1.5-1.5,2.2-2.2c1.3-1.3,2.6-2.6,3.9-3.8c0.7-0.7,1.4-1.3,2.1-2c0.7-0.7,1.2-1.1,1.8-1.7
	c0.8-0.7,1.6-1.4,2.4-2.2c0.6-0.6,1.3-1.1,1.9-1.7c0.8-0.7,1.6-1.4,2.4-2l2.2-1.8c0.7-0.6,1.4-1.1,2.1-1.7c2-1.6,4-3.2,6.1-4.8
	c0.7-0.5,1.4-1.1,2.2-1.6c0.4-0.3,0.8-0.6,1.2-0.8l1.8-1.3c0.8-0.5,1.5-1.1,2.3-1.6c51.3-3,102.4-9,152.9-18
	c15.9-2.9,31.5-7.4,46.5-13.6l2.8,0.9c0.9,0.3,1.9,0.6,2.8,0.9l1,0.3c2.1,0.7,4.1,1.4,6.2,2.1c0.6,0.2,1.3,0.5,1.9,0.7
	c5.7,2.1,11.4,4.5,17,7.1c0.7,0.3,1.3,0.6,2,0.9c4.8,2.3,9.5,4.7,14.2,7.3l1.6,0.9c0.9,0.5,1.8,1,2.6,1.5c1.5,0.9,3.1,1.9,4.6,2.8
	c0.8,0.5,1.7,1.1,2.6,1.6c3.6,2.3,7.1,4.7,10.6,7.2l2,1.5c0.9,0.7,1.8,1.3,2.7,2l2.3,1.7c1.4,1.1,2.8,2.2,4.1,3.3l1.5,1.2l1.6,1.3
	c0.8,0.7,1.6,1.4,2.5,2.1c1.4,1.2,2.8,2.4,4.1,3.6c0.5,0.5,1.1,1,1.6,1.5l0.3,0.3l0.6,0.6c1.8,1.7,3.5,3.4,5.3,5.1
	c0.7,0.7,1.4,1.4,2.1,2.1c0.5,0.5,0.9,1,1.4,1.4c1.1,1.1,2.2,2.3,3.3,3.5l1.2,1.3c2.4,2.7,4.8,5.4,7.1,8.1c0.6,0.7,1.1,1.3,1.7,2
	c0.4,0.4,0.7,0.9,1.1,1.4c0.4,0.5,0.7,0.9,1.1,1.4c0.1,0.1,0.2,0.2,0.3,0.3c0.4,0.5,0.8,1,1.2,1.6
	C836.3,155.4,837,156.3,837.7,157.1z"/>
<path class="st1" d="M286,348.9L286,348.9c0.2,0.5,0.3,1,0.5,1.5l0.5,1.5h6.3C290.5,351.9,287.9,350.9,286,348.9z M286,348.9
	L286,348.9c0.2,0.5,0.3,1,0.5,1.5l0.5,1.5h6.3C290.5,351.9,287.9,350.9,286,348.9z M286,348.9L286,348.9c0.2,0.5,0.3,1,0.5,1.5
	l0.5,1.5h6.3C290.5,351.9,287.9,350.9,286,348.9z M286,348.9L286,348.9c0.2,0.5,0.3,1,0.5,1.5l0.5,1.5h6.3
	C290.5,351.9,287.9,350.9,286,348.9z M286,348.9c0.2,0.5,0.3,0.9,0.5,1.4s0.3,1,0.5,1.5h6.3C290.5,351.9,287.9,350.8,286,348.9z
	 M581.5,302.3l-2.9-0.1l-1.4-0.1l-1.4-0.1h-0.5l-2-0.1l-9.4-0.5l-2-0.1l-9-0.5l-3.6-0.1l-329-16.8l-1.6-0.1l-26.7-1.4l-4.3-0.2
	l-6.3-0.3l-2.9-0.1l-3.9-0.2l-3.9-0.2l-69.8-3.6c-0.2,1.4-0.4,2.7-0.6,4.1c0,0.2,0,0.3-0.1,0.5c-0.2,1.3-0.3,2.6-0.5,4l0,0
	c-0.2,1.4-0.3,2.9-0.4,4.3c-0.1,1.4-0.3,2.8-0.4,4.1c0,0.1,0,0.1,0,0.2c-0.1,1.4-0.2,2.9-0.3,4.3c-0.1,1.4-0.1,2.8-0.2,4.2
	c0,0.1,0,0.2,0,0.3c0,1.4-0.1,2.8-0.1,4.1c0,1.3,0,2.9,0,4.3c0,2.2,0,4.3,0.1,6.5c0,0.8,0,1.7,0.1,2.5c0.1,4,0.4,8,0.8,11.9
	c0.1,0.8,0.1,1.5,0.2,2.3c0.1,0.8,0.2,1.5,0.2,2.3c0.2,1.5,0.3,2.9,0.5,4.3c0,0.1,0,0.3,0.1,0.4c0.1,0.7,0.2,1.5,0.3,2.2
	c0.2,1.5,0.4,3.1,0.7,4.6c0.1,0.6,0.2,1.3,0.3,1.9c0.2,1.1,0.4,2.1,0.6,3.2c0.1,0.6,0.2,1.2,0.3,1.8l0.5,2.3c0.1,0.6,0.3,1.3,0.4,2
	l0.1,0.4c0.3,1.5,0.6,3,1,4.4l0.5,2.3c0.4,1.5,0.8,3,1.2,4.5l0.6,2.3c0.4,1.5,0.8,3,1.2,4.5c0.7,2.3,1.4,4.5,2.1,6.7l59.5,1.9
	l2.7,0.1l11.6,0.3l10.2,0.3l2.5,0.1l57.2,1.8l10.3,0.3l13.9,0.5l0,0l2.2,0.1h1.2l1.9,0.1l9.1,0.3l157,5l0,0l10.7,0.3l0,0l11.7,0.4
	l2,0.1l0,0h0.7l0,0l8.9,0.3l88.5,2.9h1.6h0.2l12.1,0.4h0.1l2.6,0.1l62.3,2l10.9,0.4l16.5,0.5h0.8h1.2l3,0.1l3.9,0.1l9.4,0.3
	l158.9,5.1c1-1.8,2-3.6,2.9-5.4c0.4-0.8,0.9-1.7,1.3-2.5c1-2,1.9-3.9,2.8-5.9c0.4-0.9,0.8-1.7,1.2-2.6c0.5-1.1,1-2.2,1.5-3.3
	c0.3-0.8,0.7-1.6,1-2.3c0.3-0.7,0.7-1.7,1.1-2.6c0.8-1.9,1.5-3.8,2.2-5.7c0.3-0.7,0.5-1.4,0.8-2.1c0.3-0.7,0.5-1.2,0.7-1.9
	c0.4-1,0.7-2,1-3c0.3-1,0.7-2.2,1.1-3.3c0.4-1.1,0.7-2,1-3c0.2-0.6,0.3-1.2,0.5-1.7c0.4-1.5,0.8-2.9,1.3-4.4
	c0.2-0.6,0.3-1.2,0.5-1.8c0.2-0.9,0.5-1.7,0.7-2.5c0.4-1.5,0.7-2.9,1.1-4.4c0.2-0.9,0.4-1.7,0.6-2.6c0.1-0.6,0.3-1.2,0.4-1.9
	c0.6-2.7,1.1-5.4,1.6-8c0.1-0.6,0.2-1.2,0.3-1.8c0.1-0.8,0.3-1.6,0.4-2.5c0.1-0.6,0.2-1.1,0.3-1.7c0.2-1.3,0.4-2.6,0.5-3.8
	c0.1-1.2,0.4-2.7,0.5-4.1c0-0.1,0-0.3,0-0.4c0.1-0.5,0.1-1.1,0.2-1.6c0.1-0.6,0.1-1.3,0.2-1.9c0.1-1,0.2-1.9,0.3-2.9v-0.1
	L581.5,302.3z M401.3,351.9h-18.7c5.1,0,9.3,3.7,9.3,8.1c0,4.4-4.2,8.1-9.3,8.1H274.3c-5-0.1-9.1-3.7-9.1-8.1
	c0.1-2.7,1.5-5.1,3.8-6.5l0,0c1.7-1.1,3.6-1.6,5.6-1.6h18.7c-2.7,0-5.3-1.1-7.2-3l0,0c-1.3-1.4-2.1-3.2-2.1-5.1c0-0.2,0-0.5,0-0.7
	l0,0c0.4-4.1,4.4-7.4,9.3-7.4H280c-5.1,0-9.3-3.7-9.3-8.1c0-4.4,4.2-8.1,9.3-8.1h108.1c5.1,0,9.3,3.7,9.3,8.1c0,4.4-4.2,8.1-9.3,8.1
	h13.2c5.1,0,9.3,3.6,9.3,8.1S406.4,351.9,401.3,351.9z M286,348.9L286,348.9c0.2,0.5,0.3,1,0.5,1.5l0.5,1.5h6.3
	C290.5,351.9,287.9,350.8,286,348.9L286,348.9z M286,348.9L286,348.9c0.2,0.5,0.3,1,0.5,1.5l0.5,1.5h6.3
	C290.5,351.9,287.9,350.8,286,348.9L286,348.9z M286,348.9L286,348.9c0.2,0.5,0.3,1,0.5,1.5l0.5,1.5h6.3
	C290.5,351.9,287.9,350.8,286,348.9L286,348.9z M286,348.9L286,348.9c0.2,0.5,0.3,1,0.5,1.5l0.5,1.5h6.3
	C290.5,351.9,287.9,350.8,286,348.9L286,348.9z M286,348.9L286,348.9c0.2,0.5,0.3,1,0.5,1.5l0.5,1.5h6.3
	C290.5,351.9,287.9,350.8,286,348.9L286,348.9z"/>
<path class="st1" d="M119.1,221.4c0-4.5,4.2-8.1,9.3-8.1h-8.1c-1.4,3-2.7,5.9-4,8.9c-0.3,0.6-0.5,1.2-0.7,1.8
	c-0.3,0.8-0.6,1.6-1,2.4c-0.2,0.4-0.3,0.7-0.4,1.1c-0.3,0.7-0.5,1.4-0.8,2.1h15C123.3,229.6,119.1,225.9,119.1,221.4z M882.4,268.6
	c-0.1-1-0.3-2-0.4-3c0-0.3-0.1-0.6-0.1-0.9c-0.1-0.9-0.3-1.7-0.4-2.6c0-0.2-0.1-0.4-0.1-0.7c-0.1-0.9-0.3-1.8-0.4-2.7
	c-0.2-1.4-0.5-2.8-0.7-4.2c-0.2-0.9-0.3-1.8-0.5-2.7c-0.3-1.4-0.6-2.8-0.9-4.2l-0.3-1.5c-0.2-0.8-0.3-1.6-0.5-2.4c0-0.1,0-0.1,0-0.2
	c-0.3-1.1-0.5-2.3-0.8-3.4c-0.3-1.2-0.6-2.4-0.9-3.6c-0.2-0.9-0.5-1.7-0.7-2.6c-0.1-0.5-0.3-1-0.4-1.5c-0.6-2-1.2-4-1.8-6
	c-0.2-0.6-0.3-1.1-0.5-1.7c-0.2-0.6-0.4-1.3-0.7-2c-0.3-0.9-0.6-1.8-0.9-2.7c-0.2-0.6-0.4-1.2-0.6-1.8s-0.5-1.4-0.7-2
	c-1.1-2.9-2.2-5.8-3.4-8.7c-0.3-0.8-0.7-1.6-1-2.4c-0.5-1.3-1.1-2.5-1.7-3.8c-0.4-0.9-0.9-1.9-1.3-2.9l-0.1-0.3
	c-0.3-0.7-0.7-1.4-1-2.1c-0.3-0.5-0.5-1.1-0.8-1.6c-1.6-3.3-3.3-6.5-5-9.7c-0.5-1-1.1-2-1.7-3c-0.6-1-1.2-2.2-1.9-3.2
	c-0.7-1-1.3-2.2-1.9-3.2c-0.6-1-1.3-2.1-2-3.2l0,0c-1.3-2.1-2.7-4.2-4.1-6.3c-0.7-1-1.4-2.1-2.2-3.1l-701,15
	c-2.8,3.9-5.4,7.9-7.9,12c-0.5,0.8-1,1.6-1.5,2.4s-1,1.6-1.5,2.4c-0.4,0.8-1,1.6-1.4,2.5h94.5c5.1,0,9.3,3.7,9.3,8.1
	c0,4.4-4.2,8.1-9.3,8.1h13.3c5.1,0,9.3,3.6,9.3,8.1s-4.2,8.1-9.3,8.1h-18.7c5.1,0,9.3,3.7,9.3,8.1c0,4.5-4.2,8.1-9.3,8.1h-108
	c-0.6,0-1.2-0.1-1.8-0.2c-0.3,1.1-0.7,2.2-1,3.4s-0.6,2.2-0.9,3.3c-0.1,0.5-0.3,0.9-0.4,1.4c-0.3,1.3-0.7,2.6-1,3.9
	c-0.2,0.6-0.3,1.2-0.4,1.8s-0.3,1.2-0.4,1.8c-0.3,1.3-0.6,2.6-0.8,3.9c-0.2,0.8-0.3,1.6-0.5,2.4c-0.4,1.8-0.7,3.5-1,5.3h781.3
	C882.7,271.3,882.6,270,882.4,268.6z"/>
<path class="st2" d="M768.2,427.5c-24.6-12.5-9.9-0.9-31.3,9.6s-139.1-1.6-151.2-9.6s-74.9,5-88.7,9.6c-2.9,0.8-5.8,1.2-8.8,1.4
	c-2.8,0.3-6,0.4-9.6,0.5c-2,0.1-4.1,0.1-6.3,0.1h-2.1c-4.6,0-9.7-0.2-14.9-0.4c-3.3-0.1-6.7-0.3-10.1-0.5
	c-26.6-1.7-55.8-6-69.6-13.5c-0.8-0.4-1.5-0.8-2.2-1.3c-1-0.7-2.2-1.4-3.6-2.1c-7.4-3.9-19.9-8.6-34.6-13.5
	c-13.3-4.5-28.4-9.1-43.2-13.4l-9-2.6l-1.9-0.5l-1.4-0.4l-2.6-0.7c-5.8-1.6-11.3-3.1-16.6-4.6c-3.6-1-7.2-2-10.5-2.9
	c-17-4.6-28.8-7.6-28.8-7.6c-12.5,6.9-30.9,10.8-52,12.7c-18.2,1.6-38.4,1.7-58.5,1c0.1,0,0.1,0.1,0.1,0.2c0.4,1.2,0.8,2.3,1.2,3.4
	c0.2,0.8,0.5,1.5,0.8,2.3c0.1,0.2,0.2,0.4,0.3,0.7c0.1,0.3,0.2,0.5,0.3,0.8l0.1,0.3l0.1,0.2c0,0.1,0.1,0.1,0.1,0.2l0.1,0.2
	c0.1,0.3,0.3,0.7,0.4,1c0.4,0.9,0.7,1.8,1.1,2.7c0.1,0.4,0.3,0.9,0.4,1.1c0.1,0.2,0.2,0.4,0.3,0.6l0.4,0.9c0.3,0.8,0.6,1.5,0.9,2.2
	c0.1,0.3,0.2,0.5,0.3,0.7l0.4,0.8l0.9,2c0.1,0.3,0.3,0.5,0.4,0.8c0.3,0.5,0.5,0.9,0.7,1.4c0,0.1,0,0.2,0.1,0.3l0.8,1.7l0.2,0.4
	l0.1,0.3c0,0.1,0.1,0.2,0.1,0.3c0.1,0.2,0.2,0.5,0.4,0.8c0.2,0.3,0.3,0.7,0.5,1c0.2,0.5,0.4,1,0.7,1.5l1,2c0.4,0.8,0.9,1.7,1.3,2.5
	c0.4,0.6,0.7,1.2,1,1.8c0.1,0,0.1,0.1,0.1,0.1c0.3,0.6,0.7,1.3,1.1,2c0.2,0.3,0.3,0.5,0.5,0.8l0.1,0.1l0.4,0.7l0.3,0.6
	c0.1,0.3,0.3,0.6,0.5,0.9l1.2,2.1l0.4,0.7c0.5,0.7,0.9,1.4,1.3,2.1c0.5,0.9,1.1,1.9,1.7,2.8c0.1,0.2,0.2,0.3,0.3,0.5l0.2,0.3
	c0.6,0.9,1.2,1.9,1.8,2.8l0.1,0.2c0.6,0.9,1.1,1.7,1.7,2.6l1,1.4c0.5,0.7,0.9,1.3,1.4,2l0.4,0.6l0.3,0.4l1.1,1.5l0.3,0.4l0.6,0.8
	l0.4,0.5l0.3,0.4c0.6,0.7,1.1,1.5,1.7,2.2c0.1,0.1,0.1,0.2,0.2,0.3c0.3,0.4,0.5,0.6,0.9,1.1c0.4,0.5,0.8,1,1.1,1.4
	c0.3,0.4,0.6,0.7,0.9,1.1c0.5,0.7,1.1,1.3,1.6,2l0.3,0.4c0.6,0.7,1.2,1.5,1.9,2.3l0.3,0.4c0.5,0.5,0.9,1.1,1.4,1.6
	c0.7,0.8,1.5,1.7,2.1,2.4c0.6,0.7,1.3,1.4,1.9,2.1c0.4,0.5,0.9,0.9,1.3,1.4l0.8,0.9c0.5,0.5,1,1.1,1.5,1.6l1.5,1.5
	c1.2,1.1,2.3,2.3,3.5,3.5l0.1,0.1l1.1,1.1l0.7,0.7l1,0.9c0.7,0.6,1.4,1.3,2.1,2l0.2,0.1l0.1,0.1l1.2,1.1l0.5,0.5l0.4,0.4
	c0.5,0.6,1.1,1.1,1.7,1.6c0.9,0.8,1.7,1.5,2.6,2.3l0.2,0.2l0.5,0.4c0.8,0.7,1.6,1.5,2.5,2.2l48.9,41.2l17.2,14.4l5.6,4.8l1.7,1.5
	l3.4,2.8l9.4,7.9L282,576l0.6,0.5l3.7,3.1l23.4,19.7l8.5,7.1l6.2,5.2l2.2,1.8l12.4,10.4l11.1,9.5l8.9,7.5l0.3,0.2l2.8,2.3l21.4,18
	l12.5,10.6l2.4,2l5.3,4.4l14.6,12.3l29,24.4l7.4,6.2l7.6,6.5l2,1.7l12.3,10.2l9.3,7.8l13.8,11.6l27.8,23.4l6.6,5.6l2.3,1.9l2.5,2.1
	l0.2,0.2l1.1-1.2l24.8-29.5l27.6-32.8l71.5-84.9l10.4-12.3l81.1-96.6l59.2-70.3C791.9,444.9,774.3,430.6,768.2,427.5z"/>
<circle class="st3" cx="177.2" cy="183.7" r="1"/>
<circle class="st3" cx="754.9" cy="239.1" r="1"/>
<circle class="st3" cx="425.2" cy="160.3" r="1"/>
<circle class="st3" cx="548.6" cy="161.9" r="1"/>
<circle class="st3" cx="472.6" cy="253.4" r="1"/>
<circle class="st3" cx="652.6" cy="191.4" r="1"/>
<circle class="st4" cx="572.5" cy="136.4" r="2.1"/>
<circle class="st4" cx="665.8" cy="114.4" r="2.1"/>
<circle class="st4" cx="308.6" cy="280.4" r="0.8"/>
<circle class="st4" cx="282.6" cy="162.7" r="0.8"/>
<circle class="st4" cx="262.6" cy="216.9" r="0.8"/>
<circle class="st4" cx="518.6" cy="211.1" r="0.8"/>
<circle class="st4" cx="704.6" cy="152.9" r="0.8"/>
<circle class="st4" cx="393.4" cy="209" r="2.1"/>
<circle class="st4" cx="355.8" cy="123.1" r="2.1"/>
<circle class="st4" cx="510.4" cy="163.3" r="2.1"/>
<polygon class="st3" points="208.5,152.3 207.9,152.3 207.9,151.8 207.8,151.8 207.8,152.3 207.3,152.3 207.3,152.4 207.8,152.4 
	207.8,152.9 207.9,152.9 207.9,152.4 208.5,152.4 "/>
<polygon class="st3" points="768.4,160.8 767.9,160.8 767.9,160.3 767.8,160.3 767.8,160.8 767.3,160.8 767.3,160.9 767.8,160.9 
	767.8,161.5 767.9,161.5 767.9,160.9 768.4,160.9 "/>
<polygon class="st3" points="313.8,163.7 312.8,163.7 312.8,162.7 312.6,162.7 312.6,163.7 311.5,163.7 311.5,163.9 312.6,163.9 
	312.6,164.9 312.8,164.9 312.8,163.9 313.8,163.9 "/>
<polygon class="st3" points="347.8,231.2 346.8,231.2 346.8,230.2 346.6,230.2 346.6,231.2 345.6,231.2 345.6,231.4 346.6,231.4 
	346.6,232.4 346.8,232.4 346.8,231.4 347.8,231.4 "/>
<polygon class="st3" points="197.6,247.8 196.6,247.8 196.6,246.8 196.3,246.8 196.3,247.8 195.3,247.8 195.3,248.1 196.3,248.1 
	196.3,249.1 196.6,249.1 196.6,248.1 197.6,248.1 "/>
<polygon class="st3" points="543.2,268.8 542.2,268.8 542.2,267.8 542,267.8 542,268.8 541,268.8 541,269.1 542,269.1 542,270.1 
	542.2,270.1 542.2,269.1 543.2,269.1 "/>
<polygon class="st3" points="666.9,232.3 665.9,232.3 665.9,231.3 665.6,231.3 665.6,232.3 664.6,232.3 664.6,232.5 665.6,232.5 
	665.6,233.5 665.9,233.5 665.9,232.5 666.9,232.5 "/>
<path class="st0" d="M450.7,663.1c-9.3,10.8-20.3,20.1-32.4,27.5l-14.6-12.3C417.3,666.6,437,653.9,450.7,663.1z"/>
<path class="st0" d="M405.3,648.2c0,0,34.7-37.6,60-28.3c0,0-29.7,39-64.7,40L405.3,648.2z"/>
<path class="st0" d="M421,605.6c0,0,38.3-36,55-29.7c0,0-27.7,40-56.7,37.7L421,605.6z"/>
<path class="st0" d="M436.3,566.2c0,0,33-43,51-39.7c0,0-20,38.3-51,44V566.2z"/>
<path class="st0" d="M453,513.2c0,0,29.2-33,44.9-32.9c0,0-23,44-46.1,43.6L453,513.2z"/>
<path class="st0" d="M462.8,477.9l28.2-68.7c0,0,1.4,62.1-31.8,81.4L462.8,477.9z"/>
<path class="st0" d="M474.3,402.2c0,0,4.7-57.3,1.7-62c0,0,20.1,47.7-1.9,87.3L474.3,402.2z"/>
<path class="st0" d="M383.5,661.3l-21.4-18l-2.8-2.3c0-0.1,0-0.2,0-0.4c-0.7-5.9-0.8-9.6-0.8-9.6C371.7,632,379.3,646.5,383.5,661.3
	z"/>
<path class="st0" d="M408.2,646.4c0,0-8.2-50.5-34.5-56.7c0,0,3.3,48.9,31.9,69L408.2,646.4z"/>
<path class="st0" d="M424.1,605.9c0,0-0.3-52.6-16.4-60.3c0,0-10,47.6,11.7,67L424.1,605.9z"/>
<path class="st0" d="M437.6,565.6c0,0-2.3-54.2-18.9-61.8c0,0-5.7,42.9,16.4,65.3L437.6,565.6z"/>
<path class="st0" d="M455.3,517.5c0,0-0.1-44-12-54.4c0,0-11.8,48.3,5.8,63.2L455.3,517.5z"/>
<path class="st0" d="M461.4,475.7l-11.5-73.3c0,0-15.7,60.1,12.1,86.5L461.4,475.7z"/>
<path class="st0" d="M463.7,402.9c0,0-29.7-49.3-29.1-54.8c0,0,3.2,51.6,40.5,77.4L463.7,402.9z"/>
<path class="st0" d="M467.2,388.3c0,0-28-70-40.7-75.7c0,0,40,20.3,43,73.7L467.2,388.3z"/>
<path class="st5" d="M451.6,524.4l-1.9-0.6c23.6-77.1,29.5-126.3,16.6-138.5l1.4-1.5C481.4,396.8,475.8,445.4,451.6,524.4z"/>
<path class="st5" d="M453.4,518.6l-0.9,2.9l-0.7,2.2c-0.1,0.2-0.1,0.4-0.2,0.6c-3.7,11.8-7.9,24.7-12.5,38.3
	c-0.9,2.6-1.8,5.2-2.7,7.8c-3.4,9.9-7,20.2-10.8,30.8c-0.5,1.5-1.1,3-1.6,4.5l-0.1,0.2c-0.9,2.5-1.8,5-2.8,7.6
	c-3.5,9.7-7.2,19.5-11,29.6c-1,2.8-2.1,5.6-3.2,8.4c-0.8,2.1-1.6,4.3-2.5,6.5c-0.2,0.5-0.4,1.1-0.6,1.6c-1.8,4.7-3.7,9.4-5.5,14.2
	l-2.4-2c1.6-4,3.2-8,4.7-11.9c0.5-1.3,1-2.5,1.5-3.7c1-2.6,2-5.2,3-7.8l0.1-0.2c0.7-1.8,1.4-3.7,2.1-5.5c4-10.3,7.9-20.5,11.6-30.4
	l1.4-3.6c0.5-1.2,0.9-2.5,1.4-3.7c0.7-2,1.5-3.9,2.2-5.8c3.8-10.4,7.4-20.5,10.8-30.2c0.9-2.5,1.7-5,2.6-7.4
	c4.3-12.4,8.2-24.2,11.6-35.2c0.6-2,1.3-4,1.8-5.9c0-0.1,0.1-0.3,0.1-0.4l1.4-0.7L453.4,518.6z"/>
<path class="st0" d="M449.7,696.9l5,24.3l-7.4-6.2C447.7,709,448.5,702.9,449.7,696.9z"/>
<path class="st0" d="M467.4,693.1c0,0,6-57.2,9.8-61.2c0,0-28.6,43.1-14.3,86.2L467.4,693.1z"/>
<path class="st0" d="M485.8,747.5l-9.3-7.8l14.9-41.8C491.4,697.8,493.2,723.6,485.8,747.5z"/>
<path class="st0" d="M477.7,695.7c0,0,38.3-43,38.7-48.5c0,0-12.6,50.2-54.1,68.6L477.7,695.7z"/>
<path class="st0" d="M477,680.8c0,0,40.5-63.6,54-66.9c0,0-43.1,12.6-55.9,64.5L477,680.8z"/>
<path class="st5" d="M478.4,678c-0.8,0.5-1.5,1.1-2.2,1.8c-5.2,5.2-8.7,15.9-10.5,31.7c-0.1,1-0.2,1.9-0.3,2.9
	c-0.5,4.6-0.8,9.6-1,15l-2-1.7c0.2-3.4,0.3-6.6,0.6-9.7c0.1-0.9,0.1-1.7,0.2-2.6l0.1-0.8c0.6-7.9,2.1-15.6,4.4-23.2
	c2-6.1,4.5-10.6,7.5-13.5c0.7-0.6,1.4-1.2,2.1-1.7L478.4,678z"/>
<path class="st0" d="M540.1,791.1l-1.1,1.2l-0.2-0.2C539.3,791.7,539.7,791.4,540.1,791.1z"/>
<path class="st0" d="M592.6,728.7L565,761.5l0,0c-6.4,3.4-13.2,5.6-20.1,5.5c-0.7,0-1.3,0-2-0.1l0.2-1l0.8-3.9l0.6-3l0.7-0.7
	c0.5-0.5,1.3-1.2,2.3-2.1l1.7-1.5l0,0C558.3,746.9,578.6,730.6,592.6,728.7z"/>
<path class="st0" d="M559.9,719.6c0,0,33-43,51-39.7c0,0-20,38.3-51,44V719.6z"/>
<path class="st0" d="M576.5,666.6c0,0,29.2-33,44.9-32.9c0,0-23,44-46.1,43.6L576.5,666.6z"/>
<path class="st0" d="M586.4,631.3l28.2-68.7c0,0,1.4,62.1-31.8,81.4L586.4,631.3z"/>
<path class="st0" d="M597.8,555.6c0,0,4.7-57.3,1.7-62c0,0,20.1,47.7-1.9,87.3L597.8,555.6z"/>
<path class="st0" d="M527.4,782.5l-27.8-23.4c-1.1-5.3-2-10.6-2.4-15.9C513.3,746.9,522.6,767.3,527.4,782.5z"/>
<path class="st0" d="M547.7,759.3c0,0-0.3-52.6-16.3-60.3c0,0-10,47.6,11.7,67L547.7,759.3z"/>
<path class="st0" d="M561.1,719.1c0,0-2.3-54.2-18.9-61.8c0,0-5.7,42.9,16.4,65.3L561.1,719.1z"/>
<path class="st0" d="M578.8,670.9c0,0-0.1-44-12-54.4c0,0-11.8,48.3,5.8,63.2L578.8,670.9z"/>
<path class="st0" d="M585,629.1l-11.5-73.3c0,0-15.7,60.1,12.1,86.5L585,629.1z"/>
<path class="st0" d="M587.2,556.3c0,0-29.7-49.3-29.1-54.8c0,0,3.2,51.6,40.5,77.4L587.2,556.3z"/>
<path class="st0" d="M590.7,541.7c0,0-28-70-40.7-75.7c0,0,40,20.3,43,73.7L590.7,541.7z"/>
<path class="st5" d="M575.2,677.8l-1.9-0.6c23.6-77.1,29.5-126.2,16.6-138.5l1.4-1.5C604.9,550.2,599.4,598.8,575.2,677.8z"/>
<path class="st5" d="M576.9,672.1c-0.3,1-0.6,2-0.9,2.9l0,0c-0.2,0.7-0.4,1.4-0.7,2.1l0,0l0,0c-0.1,0.2-0.1,0.4-0.2,0.6
	c-3.7,11.8-7.9,24.7-12.5,38.3l0,0c-0.9,2.6-1.8,5.2-2.7,7.8c-3.4,9.9-7,20.2-10.8,30.8l0,0c-0.5,1.5-1.1,3-1.6,4.5l-0.1,0.2l0,0
	c-0.9,2.5-1.8,5.1-2.8,7.6c-2.7,7.5-5.6,15.2-8.5,23l-2.3-1.9c2.9-7.6,5.7-15.1,8.5-22.5l1.4-3.6c0.5-1.2,0.9-2.5,1.4-3.7
	c0.7-2,1.4-3.9,2.2-5.8c3.8-10.4,7.4-20.5,10.8-30.2c0.9-2.5,1.7-5,2.6-7.4l0,0c4.3-12.4,8.2-24.2,11.6-35.2c0.6-2,1.2-3.9,1.8-5.8
	c0.1-0.2,0.1-0.4,0.2-0.5l1.4-0.7L576.9,672.1z"/>
<path class="st0" d="M705,580.8c0,0,17.7-51.3,35.8-53.8c0,0-6.8,42.7-34.4,57.9L705,580.8z"/>
<path class="st0" d="M704.9,528.3c0,0,17.2-40.5,32.2-45.4c0,0-7.9,49-29.9,56L704.9,528.3z"/>
<path class="st0" d="M703.1,490.7l4.9-74c0,0,21,58.4-4.3,87.3L703.1,490.7z"/>
<path class="st0" d="M689.9,415.2c0,0-13.8-55.9-18.1-59.3c0,0,34.2,38.8,25.9,83.4L689.9,415.2z"/>
<path class="st0" d="M674.5,631.5l-10.4,12.3c-3.8-6-7.2-12.2-10-18.8C661.2,624.4,668.1,627.1,674.5,631.5z"/>
<path class="st0" d="M707,581.9c0,0-19.3-50.6-37.5-52.6c0,0,8.2,42.5,36.3,56.8L707,581.9z"/>
<path class="st0" d="M708.5,530.6c0,0-14.1-41.7-28.6-47.8c0,0,4.1,49.5,25.5,58.1L708.5,530.6z"/>
<path class="st0" d="M701.1,489.1l-34.2-65.9c0,0,4.2,61.9,38.9,78.2L701.1,489.1z"/>
<path class="st0" d="M680.1,419.2c0,0-43.8-37.3-44.9-42.7c0,0,19.4,48,63,60.6L680.1,419.2z"/>
<path class="st0" d="M678.8,404.3c0,0-48.8-57.5-62.6-58.9c0,0,44.4,6.6,64.2,56.2L678.8,404.3z"/>
<path class="st5" d="M707,538.4l-2.3-0.1c-2-80.6-11.4-129.1-27.6-136.6l0.7-1.8C694.9,407.9,704.9,455.9,707,538.4z"/>
<path class="st5" d="M704.1,567.2c0-1.7,0-3.4,0-5.1c0.1-6.5,0.3-13.3,0.5-20.2c0-1,0-2,0-3c0-0.1,0-0.1,0-0.1
	c0.1-1.7,0.3-4.1,0.3-5c0-1.7,2.1-1.8,2-0.1c0,0.8,0.1,1.6,0.1,2.4c0,0.7,0,1.7,0,2.5c-0.1,1.3,0.1,3,0,4.3
	c-0.3,6.9-0.5,13.5-0.7,19.9c0,1.7,0,3.3-0.1,4.8c-0.1,8.1-0.1,15.8,0.1,23c0,1.3,0.1,1.9,0.1,3.2c0,0.1-0.1,0.1-0.1,0.2l-1.1,1.4
	l-0.7,0.7c0-0.6-0.1-1.4-0.1-2.1c0-0.4,0-0.9,0-1.4c0-0.1,0-0.3,0-0.4C704.2,584.5,704,576.1,704.1,567.2z"/>
<path class="st0" d="M541.3,348.1c0,0-7.9,1.2-5.8,6.4c0,0.6,0.4,1.1,1,1.2c0,0-0.1-0.4,0.7-0.4c0.3,0,0.6-0.1,0.9-0.1
	c0.4-0.1,0.7-0.3,0.9-0.6l0,0c0,0,2-1.4,2.1-5.1c0,0,0.5-0.9,0.4-1.1l-1.2,0.8c0.4,0.5,0.5,1.1,0.5,1.7c0,0-0.4-1.7-0.6-1.6
	l-0.6,0.5c0.6,0.8,0.9,1.8,0.8,2.8c0,0-0.2-2.1-1-2.6l-0.8,0.7c0.7,0.8,1.1,1.9,1,3c0,0-0.3-2.1-1.1-2.8l-0.7,0.8
	c0.6,0.8,1,1.7,0.9,2.8c0,0-0.6-2.5-1.1-2.5c-0.3,0.3-0.5,0.7-0.6,1.1c0,0,0.8,1.1,0.6,1.8c0,0-0.6-1.6-0.8-1.6
	c-0.3,0.6-0.4,1.3-0.4,2c-0.1-0.7,0-1.4,0.2-2.1c-0.4,0.2-0.8,0.5-1,0.8c0,0-0.1-0.8,1.1-1.1c0.2-0.4,0.3-0.7,0.6-1
	c-0.6,0.1-1.3,0.3-1.8,0.6c0.5-0.6,1.2-0.9,2-0.9l0.7-0.9c-0.8,0-1.5,0.2-2.2,0.5c0.6-0.6,1.5-0.9,2.4-0.7l0.8-0.7
	c-0.7,0-1.4,0.1-2.1,0.3c0.7-0.4,1.5-0.6,2.4-0.5l0.6-0.4c0,0-1,0-1.3,0c-0.3,0-0.3,0-0.3,0c0.6-0.2,1.2-0.3,1.9-0.2
	C540.5,348.7,540.9,348.4,541.3,348.1z"/>
<path class="st2" d="M541.3,348.1c0,0-7.9,1.2-5.8,6.4c0,0.6,0.4,1.1,1,1.2c0,0-0.1-0.4,0.7-0.4c0.3,0,0.6-0.1,0.9-0.1
	c0.4-0.1,0.7-0.3,0.9-0.6l0,0c0,0,2-1.4,2.1-5.1c0,0,0.5-0.9,0.4-1.1l-1.2,0.8c0.4,0.5,0.5,1.1,0.5,1.7c0,0-0.4-1.7-0.6-1.6
	l-0.6,0.5c0.6,0.8,0.9,1.8,0.8,2.8c0,0-0.2-2.1-1-2.6l-0.8,0.7c0.7,0.8,1.1,1.9,1,3c0,0-0.3-2.1-1.1-2.8l-0.7,0.8
	c0.6,0.8,1,1.7,0.9,2.8c0,0-0.6-2.5-1.1-2.5c-0.3,0.3-0.5,0.7-0.6,1.1c0,0,0.8,1.1,0.6,1.8c0,0-0.6-1.6-0.8-1.6
	c-0.3,0.6-0.4,1.3-0.4,2c-0.1-0.7,0-1.4,0.2-2.1c-0.4,0.2-0.8,0.5-1,0.8c0,0-0.1-0.8,1.1-1.1c0.2-0.4,0.3-0.7,0.6-1
	c-0.6,0.1-1.3,0.3-1.8,0.6c0.5-0.6,1.2-0.9,2-0.9l0.7-0.9c-0.8,0-1.5,0.2-2.2,0.5c0.6-0.6,1.5-0.9,2.4-0.7l0.8-0.7
	c-0.7,0-1.4,0.1-2.1,0.3c0.7-0.4,1.5-0.6,2.4-0.5l0.6-0.4c0,0-1,0-1.3,0c-0.3,0-0.3,0-0.3,0c0.6-0.2,1.2-0.3,1.9-0.2
	C540.5,348.7,540.9,348.4,541.3,348.1z"/>
<path class="st0" d="M206.2,318.5c0,0-7.8,1.2-5.8,6.4c0,0.6,0.4,1.1,1,1.3c0,0-0.1-0.4,0.7-0.4c0.3,0,0.6-0.1,0.8-0.1
	c0.4-0.1,0.7-0.3,0.9-0.6l0,0c0,0,2-1.4,2.1-5.1c0,0,0.5-0.9,0.4-1.1l-1.2,0.8c0.4,0.5,0.5,1.1,0.5,1.7c0,0-0.4-1.7-0.6-1.6
	l-0.6,0.5c0.6,0.8,0.9,1.8,0.8,2.8c0,0-0.2-2.1-1-2.6l-0.8,0.7c0.7,0.8,1.1,1.9,1,3c0,0-0.3-2.2-1.1-2.9l-0.7,0.8
	c0.6,0.8,1,1.7,0.9,2.8c0,0-0.6-2.5-1.1-2.5c-0.3,0.3-0.5,0.7-0.6,1.1c0,0,0.8,1.1,0.6,1.8c0,0-0.6-1.6-0.8-1.6
	c-0.3,0.6-0.4,1.3-0.4,2c-0.1-0.7,0-1.4,0.2-2.1c-0.4,0.2-0.8,0.5-1,0.8c0,0-0.1-0.8,1.1-1.1c0.2-0.4,0.3-0.7,0.6-1
	c-0.6,0.1-1.3,0.3-1.8,0.6c0.5-0.6,1.2-0.9,2-0.9l0.7-0.9c-0.8,0-1.5,0.2-2.2,0.5c0.6-0.6,1.5-0.9,2.4-0.7l0.8-0.7
	c-0.7,0-1.4,0.1-2.1,0.3c0.7-0.5,1.6-0.6,2.4-0.5l0.6-0.4c0,0-1,0-1.3,0s-0.3,0-0.3,0c0.6-0.2,1.2-0.3,1.9-0.2
	C205.4,319.2,205.8,318.9,206.2,318.5z"/>
<path class="st2" d="M206.2,318.5c0,0-7.8,1.2-5.8,6.4c0,0.6,0.4,1.1,1,1.3c0,0-0.1-0.4,0.7-0.4c0.3,0,0.6-0.1,0.8-0.1
	c0.4-0.1,0.7-0.3,0.9-0.6l0,0c0,0,2-1.4,2.1-5.1c0,0,0.5-0.9,0.4-1.1l-1.2,0.8c0.4,0.5,0.5,1.1,0.5,1.7c0,0-0.4-1.7-0.6-1.6
	l-0.6,0.5c0.6,0.8,0.9,1.8,0.8,2.8c0,0-0.2-2.1-1-2.6l-0.8,0.7c0.7,0.8,1.1,1.9,1,3c0,0-0.3-2.2-1.1-2.9l-0.7,0.8
	c0.6,0.8,1,1.7,0.9,2.8c0,0-0.6-2.5-1.1-2.5c-0.3,0.3-0.5,0.7-0.6,1.1c0,0,0.8,1.1,0.6,1.8c0,0-0.6-1.6-0.8-1.6
	c-0.3,0.6-0.4,1.3-0.4,2c-0.1-0.7,0-1.4,0.2-2.1c-0.4,0.2-0.8,0.5-1,0.8c0,0-0.1-0.8,1.1-1.1c0.2-0.4,0.3-0.7,0.6-1
	c-0.6,0.1-1.3,0.3-1.8,0.6c0.5-0.6,1.2-0.9,2-0.9l0.7-0.9c-0.8,0-1.5,0.2-2.2,0.5c0.6-0.6,1.5-0.9,2.4-0.7l0.8-0.7
	c-0.7,0-1.4,0.1-2.1,0.3c0.7-0.5,1.6-0.6,2.4-0.5l0.6-0.4c0,0-1,0-1.3,0s-0.3,0-0.3,0c0.6-0.2,1.2-0.3,1.9-0.2
	C205.4,319.2,205.8,318.9,206.2,318.5z"/>
<path class="st0" d="M508.7,358.7c0,0-7.9,1.2-5.8,6.4c0,0.6,0.4,1.1,1,1.3c0,0-0.1-0.4,0.7-0.4c0.3,0,0.6-0.1,0.9-0.1
	c0.4-0.1,0.7-0.3,0.9-0.6l0,0c0,0,2-1.4,2.1-5.1c0,0,0.5-0.9,0.4-1.1l-1.2,0.8c0.4,0.5,0.5,1.1,0.5,1.7c0,0-0.4-1.7-0.6-1.6
	l-0.6,0.5c0.6,0.8,0.9,1.8,0.8,2.8c0,0-0.2-2.1-1-2.6l-0.8,0.7c0.7,0.8,1.1,1.9,1,3c0,0-0.3-2.2-1.1-2.9l-0.7,0.8
	c0.6,0.8,1,1.8,0.9,2.8c0,0-0.6-2.5-1.1-2.5c-0.3,0.3-0.5,0.7-0.6,1.1c0,0,0.8,1.1,0.6,1.8c0,0-0.6-1.6-0.8-1.6
	c-0.3,0.6-0.4,1.3-0.4,2c-0.1-0.7,0-1.4,0.2-2.1c-0.4,0.2-0.8,0.4-1,0.8c0,0,0-0.8,1.1-1.1c0.2-0.4,0.3-0.7,0.6-1
	c-0.6,0.1-1.3,0.3-1.8,0.6c0.5-0.6,1.2-1,2-0.9l0.7-0.8c-0.8,0-1.5,0.2-2.2,0.5c0.6-0.6,1.5-0.9,2.4-0.7l0.8-0.7
	c-0.7,0-1.4,0.1-2.1,0.3c0.7-0.5,1.5-0.6,2.4-0.5l0.6-0.4c0,0-1,0-1.3,0s-0.3,0-0.3,0c0.6-0.2,1.2-0.3,1.9-0.2
	C507.9,359.3,508.3,359,508.7,358.7z"/>
<path class="st2" d="M508.7,358.7c0,0-7.9,1.2-5.8,6.4c0,0.6,0.4,1.1,1,1.3c0,0-0.1-0.4,0.7-0.4c0.3,0,0.6-0.1,0.9-0.1
	c0.4-0.1,0.7-0.3,0.9-0.6l0,0c0,0,2-1.4,2.1-5.1c0,0,0.5-0.9,0.4-1.1l-1.2,0.8c0.4,0.5,0.5,1.1,0.5,1.7c0,0-0.4-1.7-0.6-1.6
	l-0.6,0.5c0.6,0.8,0.9,1.8,0.8,2.8c0,0-0.2-2.1-1-2.6l-0.8,0.7c0.7,0.8,1.1,1.9,1,3c0,0-0.3-2.2-1.1-2.9l-0.7,0.8
	c0.6,0.8,1,1.8,0.9,2.8c0,0-0.6-2.5-1.1-2.5c-0.3,0.3-0.5,0.7-0.6,1.1c0,0,0.8,1.1,0.6,1.8c0,0-0.6-1.6-0.8-1.6
	c-0.3,0.6-0.4,1.3-0.4,2c-0.1-0.7,0-1.4,0.2-2.1c-0.4,0.2-0.8,0.4-1,0.8c0,0,0-0.8,1.1-1.1c0.2-0.4,0.3-0.7,0.6-1
	c-0.6,0.1-1.3,0.3-1.8,0.6c0.5-0.6,1.2-1,2-0.9l0.7-0.8c-0.8,0-1.5,0.2-2.2,0.5c0.6-0.6,1.5-0.9,2.4-0.7l0.8-0.7
	c-0.7,0-1.4,0.1-2.1,0.3c0.7-0.5,1.5-0.6,2.4-0.5l0.6-0.4c0,0-1,0-1.3,0s-0.3,0-0.3,0c0.6-0.2,1.2-0.3,1.9-0.2
	C507.9,359.3,508.3,359,508.7,358.7z"/>
<path class="st0" d="M516,328.1c0,0-4.8,6.3,0.3,8.6c0.4,0.4,1.1,0.5,1.6,0.2c0,0-0.3-0.2,0.2-0.8c0.2-0.2,0.4-0.4,0.5-0.7
	c0.2-0.3,0.3-0.7,0.2-1.1l0,0c0,0,0.5-2.4-2-5.1c0,0-0.3-1-0.5-1.1l-0.3,1.4c0.6,0.1,1.1,0.4,1.5,0.9c0,0-1.5-0.9-1.6-0.7l-0.1,0.8
	c1,0.2,1.9,0.7,2.5,1.5c0,0-1.6-1.4-2.5-1.2l-0.1,1.1c1.1,0.1,2.1,0.7,2.8,1.5c0,0-1.7-1.4-2.8-1.3l0.1,1.1c1,0.1,1.9,0.6,2.6,1.3
	c0,0-2.1-1.4-2.5-1.1c0,0.4,0.1,0.8,0.3,1.2c0,0,1.4,0.2,1.7,0.9c0,0-1.5-0.8-1.6-0.6c0.3,0.6,0.6,1.2,1.1,1.7c-0.6-0.4-1-1-1.3-1.7
	c-0.2,0.4-0.2,0.8-0.1,1.3c0,0-0.6-0.5,0-1.6c-0.1-0.4-0.3-0.8-0.3-1.1c-0.4,0.5-0.7,1.1-0.9,1.7c-0.1-0.8,0.2-1.5,0.9-2l-0.1-1.1
	c-0.5,0.6-0.9,1.2-1.3,1.9c0,0-0.1-1,1.2-2.1l0.1-1.1c-0.5,0.5-1,1.1-1.3,1.7c0.2-0.8,0.7-1.5,1.4-2l0.1-0.7c0,0-0.7,0.7-0.9,0.9
	c-0.2,0.2-0.3,0.2-0.3,0.2c0.3-0.6,0.7-1.1,1.2-1.4C515.8,329.1,516,328.6,516,328.1z"/>
<path class="st2" d="M516,328.1c0,0-4.8,6.3,0.3,8.6c0.4,0.4,1.1,0.5,1.6,0.2c0,0-0.3-0.2,0.2-0.8c0.2-0.2,0.4-0.4,0.5-0.7
	c0.2-0.3,0.3-0.7,0.2-1.1l0,0c0,0,0.5-2.4-2-5.1c0,0-0.3-1-0.5-1.1l-0.3,1.4c0.6,0.1,1.1,0.4,1.5,0.9c0,0-1.5-0.9-1.6-0.7l-0.1,0.8
	c1,0.2,1.9,0.7,2.5,1.5c0,0-1.6-1.4-2.5-1.2l-0.1,1.1c1.1,0.1,2.1,0.7,2.8,1.5c0,0-1.7-1.4-2.8-1.3l0.1,1.1c1,0.1,1.9,0.6,2.6,1.3
	c0,0-2.1-1.4-2.5-1.1c0,0.4,0.1,0.8,0.3,1.2c0,0,1.4,0.2,1.7,0.9c0,0-1.5-0.8-1.6-0.6c0.3,0.6,0.6,1.2,1.1,1.7c-0.6-0.4-1-1-1.3-1.7
	c-0.2,0.4-0.2,0.8-0.1,1.3c0,0-0.6-0.5,0-1.6c-0.1-0.4-0.3-0.8-0.3-1.1c-0.4,0.5-0.7,1.1-0.9,1.7c-0.1-0.8,0.2-1.5,0.9-2l-0.1-1.1
	c-0.5,0.6-0.9,1.2-1.3,1.9c0,0-0.1-1,1.2-2.1l0.1-1.1c-0.5,0.5-1,1.1-1.3,1.7c0.2-0.8,0.7-1.5,1.4-2l0.1-0.7c0,0-0.7,0.7-0.9,0.9
	c-0.2,0.2-0.3,0.2-0.3,0.2c0.3-0.6,0.7-1.1,1.2-1.4C515.8,329.1,516,328.6,516,328.1z"/>
<path class="st0" d="M549.4,435.1c0,0,21.1-0.9,23.3-42.1c2.2-41.2-19.7-48.3-19.7-48.3s-7-3.9-10-4s-13.4,0.8-13.4,0.8l11.4-2.2
	c0,0-16-6.1-20.8-6.6l17.3,3.7c0,0,0.2-9.6-3.9-12.8c0,0,3.5-0.3,5.4,6.6c1.1,4,4,7.3,7.9,8.9c6.4,2.5,15.3,6.5,17.3,9.8
	c0,0,3.7,3.9,3.2-6.3c-0.5-10.2-3.3-18.9-4.3-19.1c0,0-7.6-8.1-18.3-8.6c0,0,6.3-2.5,16.8,5.4c0,0,0.9-4-3.1-8.7
	c-4-4.7-10.1-14.6-16.9-15.7c0,0,9.4-0.6,16.9,11.6c0,0,2.8,1.8,3-2.8c0.3-3.5,0.9-6.9,1.9-10.2c0,0,2.3,10.5-2.5,15.2
	c0,0,9.2,11.9,8.8,25.3c0,0,2.8,6.1,3.9-1.1c0,0,0.6-9.8,1.8-18.2c1-6.8-0.9-13.7-5.2-19.1c-2-2.5-3.4-5-2.7-6.3l10.6,12.7
	c0,0,9-20.7,15.4-25.1c6.4-4.4,7.3-5.4,7.3-5.4l-10.5,12.4l13.2-4.6l-13.2,6.1c0,0-6.1,4.9-9.6,18.5s-3.8,22-3.8,22
	s18.8-14.9,22.3-14.4l-12.1,9.2c-6.7,5.1-10.8,12.7-11.4,21.1l0,0c0,0,23.5-6,29.1-7.1l10.7-11l-8.1,10.4l16.7-0.2l9.6-6.8
	c0,0-7.5,6.3-6.8,6.7c0.7,0.4,11.8,0.9,11.8,0.9s-28.1-0.2-31.2,1.9c-3.1,2.1-10,2.8-10,2.8l19.9,3l-23.7-1.7c0,0-17.9,3.3-18.9,8.9
	c0,0,3.7,9.5,6.1,13.3c2,3.1,6.1,13.3,6.9,22.3s2,22.6-1.1,31s-4.2,13.1-2.7,15.6s3,5.8-2,6.4s-27.1-0.3-27.1-0.3
	S548.1,440,549.4,435.1z"/>
<path class="st1" d="M561.2,430.6c2.2-1.1,4.7-1.4,7.2-0.9c3.6,0.6,7.3,0.7,11,0.3L561.2,430.6z"/>
<path class="st1" d="M574.4,382c0,0,1,15.9-0.8,19L574.4,382z"/>
<path class="st1" d="M578.2,401c0,0-1.3,14.9-2.1,17.8C575.3,421.7,578.2,401,578.2,401z"/>
<path class="st1" d="M579.4,364.5c0.9,0.3,4.8,8.3,4,10.6C582.6,377.4,579.4,364.5,579.4,364.5z"/>
<path class="st1" d="M569.5,356.2c0.4,0.2,2.3,4.8,1.9,6.1C571,363.6,569.5,356.2,569.5,356.2z"/>
<path class="st1" d="M586.4,382.9c-0.5,3.8-0.6,7.5-0.4,11.3c0.2,2.9,0.2,5.7-0.1,8.6L586.4,382.9z"/>
<path class="st1" d="M537.5,329.2c0.5,0.7,0.8,1.5,0.8,2.3c0,0.8-0.1,1.7,0,2.5c0.1,0.8,0.5,1.9,1.3,2L537.5,329.2z"/>
<path class="st1" d="M552.5,301.7c1.1,1.1,2.1,2.3,2.9,3.6c0.2,0.4,0.5,0.8,0.8,1.2c0.5,0.5,1,0.9,1.6,1.3c1.3,1,2.2,2.4,2.6,4
	L552.5,301.7z"/>
<path class="st1" d="M594.9,278.1c-0.3,0.5-0.6,1-1,1.4s-0.8,0.6-1.1,1c-0.3,0.3-0.5,0.7-0.7,1.1c-0.9,1.3-1.9,2.6-3,3.8
	L594.9,278.1z"/>
<path class="st1" d="M575.2,301.5c0.6,0.5,1,1.4,0.9,2.2c-0.1,0.8-0.1,1.7,0.2,2.4c0.1,0.4,0.4,0.6,0.5,1c0.2,0.6,0.3,1.3,0.3,1.9
	c0,0.7,0,1.5-0.1,2.2c0.1,0.9-0.2,1.8-0.7,2.5L575.2,301.5z"/>
<path class="st0" d="M581.1,324.8c-0.7,0.3-1.3,0.8-1.8,1.3c-0.6,0.5-0.9,1.2-1.1,1.9c0,0.3,0,0.6-0.1,0.9c-0.1,0.4-0.3,0.8-0.6,1.1
	c-0.5,0.6-1,1.2-1.5,1.7L581.1,324.8z"/>
<path class="st1" d="M575.8,346c0.5-0.4,1-0.7,1.5-1c0.5-0.3,1-0.5,1.5-0.7c0.8-0.2,1.7-0.2,2.5-0.3c0.8,0,1.7-0.4,2.3-0.9
	L575.8,346z"/>
<path class="st1" d="M608.8,335.7c-1,0-2,0.1-2.9,0.5c-0.4,0.2-0.8,0.6-1.3,0.8c-0.6,0.3-1.2,0.5-1.9,0.5L608.8,335.7z"/>
<path class="st1" d="M595.1,339.8c0.2-0.1,0.5-0.1,0.7,0.2c0.2,0.2,0.3,0.5,0.5,0.7c0.4,0.3,0.9,0.5,1.5,0.5L595.1,339.8z"/>
<path class="st1" d="M589.5,318.8l-1,0.5c-1,0.5-1.9,1.1-2.8,1.7L589.5,318.8z"/>
<path class="st1" d="M578.6,328.1c-0.6-0.1-1.2,0.5-1.3,1.1c0,0.6-0.1,1.3-0.2,1.9c-0.2,0.5-0.5,1-0.9,1.4L578.6,328.1z"/>
<path class="st1" d="M568.1,329.3c-0.6,1.7,0.6,3.5,0.3,5.3c-0.1,0.5-0.3,1-0.5,1.6c-0.3,1.4,0.2,2.9,1.2,4L568.1,329.3z"/>
<g class="st6">
	<path d="M549.4,435.1c0,0,21.1-0.9,23.3-42.1c2.2-41.2-19.7-48.3-19.7-48.3s-7-3.9-10-4s-13.4,0.8-13.4,0.8l11.4-2.2
		c0,0-16-6.1-20.8-6.6l17.3,3.7c0,0,0.2-9.6-3.9-12.8c0,0,3.5-0.3,5.4,6.6c1.1,4,4,7.3,7.9,8.9c6.4,2.5,15.3,6.5,17.3,9.8
		c0,0,3.7,3.9,3.2-6.3c-0.5-10.2-3.3-18.9-4.3-19.1c0,0-7.6-8.1-18.3-8.6c0,0,6.3-2.5,16.8,5.4c0,0,0.9-4-3.1-8.7
		c-4-4.7-10.1-14.6-16.9-15.7c0,0,9.4-0.6,16.9,11.6c0,0,2.8,1.8,3-2.8c0.3-3.5,0.9-6.9,1.9-10.2c0,0,2.3,10.5-2.5,15.2
		c0,0,9.2,11.9,8.8,25.3c0,0,2.8,6.1,3.9-1.1c0,0,0.6-9.8,1.8-18.2c1-6.8-0.9-13.7-5.2-19.1c-2-2.5-3.4-5-2.7-6.3l10.6,12.7
		c0,0,9-20.7,15.4-25.1c6.4-4.4,7.3-5.4,7.3-5.4l-10.5,12.4l13.2-4.6l-13.2,6.1c0,0-6.1,4.9-9.6,18.5s-3.8,22-3.8,22
		s18.8-14.9,22.3-14.4l-12.1,9.2c-6.7,5.1-10.8,12.7-11.4,21.1l0,0c0,0,23.5-6,29.1-7.1l10.7-11l-8.1,10.4l16.7-0.2l9.6-6.8
		c0,0-7.5,6.3-6.8,6.7c0.7,0.4,11.8,0.9,11.8,0.9s-28.1-0.2-31.2,1.9c-3.1,2.1-10,2.8-10,2.8l19.9,3l-23.7-1.7
		c0,0-17.9,3.3-18.9,8.9c0,0,3.7,9.5,6.1,13.3c2,3.1,6.1,13.3,6.9,22.3s2,22.6-1.1,31s-4.2,13.1-2.7,15.6s3,5.8-2,6.4
		s-27.1-0.3-27.1-0.3S548.1,440,549.4,435.1z"/>
	<path class="st7" d="M561.2,430.6c2.2-1.1,4.7-1.4,7.2-0.9c3.6,0.6,7.3,0.7,11,0.3L561.2,430.6z"/>
	<path class="st7" d="M574.4,382c0,0,1,15.9-0.8,19L574.4,382z"/>
	<path class="st7" d="M578.2,401c0,0-1.3,14.9-2.1,17.8C575.3,421.7,578.2,401,578.2,401z"/>
	<path class="st7" d="M579.4,364.5c0.9,0.3,4.8,8.3,4,10.6C582.6,377.4,579.4,364.5,579.4,364.5z"/>
	<path class="st7" d="M569.5,356.2c0.4,0.2,2.3,4.8,1.9,6.1C571,363.6,569.5,356.2,569.5,356.2z"/>
	<path class="st7" d="M586.4,382.9c-0.5,3.8-0.6,7.5-0.4,11.3c0.2,2.9,0.2,5.7-0.1,8.6L586.4,382.9z"/>
	<path class="st7" d="M537.5,329.2c0.5,0.7,0.8,1.5,0.8,2.3c0,0.8-0.1,1.7,0,2.5c0.1,0.8,0.5,1.9,1.3,2L537.5,329.2z"/>
	<path class="st7" d="M552.5,301.7c1.1,1.1,2.1,2.3,2.9,3.6c0.2,0.4,0.5,0.8,0.8,1.2c0.5,0.5,1,0.9,1.6,1.3c1.3,1,2.2,2.4,2.6,4
		L552.5,301.7z"/>
	<path class="st7" d="M594.9,278.1c-0.3,0.5-0.6,1-1,1.4s-0.8,0.6-1.1,1c-0.3,0.3-0.5,0.7-0.7,1.1c-0.9,1.3-1.9,2.6-3,3.8
		L594.9,278.1z"/>
	<path class="st7" d="M575.2,301.5c0.6,0.5,1,1.4,0.9,2.2c-0.1,0.8-0.1,1.7,0.2,2.4c0.1,0.4,0.4,0.6,0.5,1c0.2,0.6,0.3,1.3,0.3,1.9
		c0,0.7,0,1.5-0.1,2.2c0.1,0.9-0.2,1.8-0.7,2.5L575.2,301.5z"/>
	<path d="M581.1,324.8c-0.7,0.3-1.3,0.8-1.8,1.3c-0.6,0.5-0.9,1.2-1.1,1.9c0,0.3,0,0.6-0.1,0.9c-0.1,0.4-0.3,0.8-0.6,1.1
		c-0.5,0.6-1,1.2-1.5,1.7L581.1,324.8z"/>
	<path class="st7" d="M575.8,346c0.5-0.4,1-0.7,1.5-1c0.5-0.3,1-0.5,1.5-0.7c0.8-0.2,1.7-0.2,2.5-0.3c0.8,0,1.7-0.4,2.3-0.9
		L575.8,346z"/>
	<path class="st7" d="M608.8,335.7c-1,0-2,0.1-2.9,0.5c-0.4,0.2-0.8,0.6-1.3,0.8c-0.6,0.3-1.2,0.5-1.9,0.5L608.8,335.7z"/>
	<path class="st7" d="M595.1,339.8c0.2-0.1,0.5-0.1,0.7,0.2c0.2,0.2,0.3,0.5,0.5,0.7c0.4,0.3,0.9,0.5,1.5,0.5L595.1,339.8z"/>
	<path class="st7" d="M589.5,318.8l-1,0.5c-1,0.5-1.9,1.1-2.8,1.7L589.5,318.8z"/>
	<path class="st7" d="M578.6,328.1c-0.6-0.1-1.2,0.5-1.3,1.1c0,0.6-0.1,1.3-0.2,1.9c-0.2,0.5-0.5,1-0.9,1.4L578.6,328.1z"/>
	<path class="st7" d="M568.1,329.3c-0.6,1.7,0.6,3.5,0.3,5.3c-0.1,0.5-0.3,1-0.5,1.6c-0.3,1.4,0.2,2.9,1.2,4L568.1,329.3z"/>
</g>
<path class="st0" d="M206.2,393c0,0-21.1-0.9-23.3-42.1c-2.2-41.2,19.7-48.2,19.7-48.2s7-3.9,10-4.1c3.1-0.2,13.4,0.8,13.4,0.8
	l-11.4-2.2c0,0,16-6.1,20.8-6.6l-17.3,3.6c0,0-0.3-9.6,3.9-12.8c0,0-3.5-0.3-5.4,6.6c-1.1,4-4,7.3-7.9,8.9
	c-6.4,2.5-15.3,6.4-17.3,9.8c0,0-3.7,3.9-3.2-6.3c0.5-10.2,3.3-18.8,4.2-19.1c0,0,7.6-8.1,18.4-8.6c0,0-6.3-2.5-16.8,5.4
	c0,0-0.9-4,3.1-8.7c4-4.7,10.2-14.6,16.9-15.7c0,0-9.4-0.6-16.9,11.6c0,0-2.8,1.8-3-2.8c-0.3-3.5-0.9-6.9-1.9-10.2
	c0,0-2.3,10.5,2.5,15.2c0,0-9.2,11.9-8.8,25.3c0,0-2.8,6.1-3.9-1.1c0,0-0.6-9.8-1.8-18.2c-1-6.8,0.9-13.7,5.2-19.1
	c2-2.5,3.4-5,2.7-6.3l-10.6,12.7c0,0-8.9-20.7-15.4-25.2s-7.3-5.4-7.3-5.4l10.5,12.3l-13.1-4.6l13.1,6.1c0,0,6.1,5,9.6,18.5
	c3.5,13.5,3.8,22,3.8,22s-18.8-14.9-22.3-14.4l12.1,9.2c6.7,5.1,10.8,12.7,11.4,21.1l0,0c0,0-23.5-6-29.1-7.1l-10.7-11l8.1,10.4
	l-16.7-0.2l-9.6-6.8c0,0,7.5,6.3,6.8,6.7s-11.8,0.9-11.8,0.9s28.1-0.2,31.2,1.9c3.1,2,10,2.8,10,2.8l-19.9,3l23.7-1.7
	c0,0,17.9,3.3,18.9,8.8c0,0-3.6,9.5-6.1,13.3c-2,3.1-6.1,13.3-6.9,22.2s-1.9,22.6,1.1,31c3.1,8.4,4.2,13.1,2.7,15.7
	c-1.5,2.5-3,5.8,2,6.4s27.1-0.3,27.1-0.3S207.5,397.9,206.2,393z"/>
<path class="st1" d="M194.4,388.5c-2.2-1.1-4.7-1.4-7.2-0.9c-3.6,0.6-7.3,0.7-11,0.3L194.4,388.5z"/>
<path class="st1" d="M181.2,339.9c0,0-1,15.9,0.8,19L181.2,339.9z"/>
<path class="st1" d="M177.5,358.9c0,0,1.3,14.9,2.2,17.8C180.6,379.6,177.5,358.9,177.5,358.9z"/>
<path class="st1" d="M176.3,322.4c-0.9,0.3-4.8,8.3-4.1,10.6C172.9,335.3,176.3,322.4,176.3,322.4z"/>
<path class="st1" d="M186.2,314.2c-0.4,0.2-2.2,4.8-1.9,6.1C184.6,321.6,186.2,314.2,186.2,314.2z"/>
<path class="st1" d="M169.2,340.8c0.5,3.8,0.6,7.5,0.4,11.3c-0.2,2.9-0.2,5.7,0.1,8.6L169.2,340.8z"/>
<path class="st1" d="M218.2,287.1c-0.5,0.7-0.8,1.5-0.8,2.3c0,0.8,0.1,1.7,0,2.5c-0.1,0.8-0.5,1.9-1.4,2L218.2,287.1z"/>
<path class="st1" d="M203.2,259.7c-1.1,1.1-2.1,2.3-2.9,3.6c-0.2,0.4-0.5,0.8-0.8,1.2c-0.5,0.5-1,0.9-1.6,1.3c-1.3,1-2.2,2.4-2.6,4
	L203.2,259.7z"/>
<path class="st1" d="M160.8,236c0.3,0.5,0.6,1,1,1.4s0.8,0.6,1.1,1c0.3,0.3,0.5,0.7,0.7,1.1c0.9,1.3,1.9,2.6,3,3.8L160.8,236z"/>
<path class="st1" d="M180.4,259.4c-0.6,0.5-1,1.4-0.9,2.2c0.1,0.8,0.1,1.7-0.2,2.4c-0.1,0.4-0.4,0.6-0.5,1c-0.2,0.6-0.3,1.3-0.2,1.9
	c0,0.7,0,1.5,0.1,2.2c-0.1,0.9,0.2,1.8,0.7,2.5L180.4,259.4z"/>
<path class="st0" d="M174.6,282.7c0.7,0.3,1.3,0.8,1.8,1.3c0.6,0.5,0.9,1.2,1.1,1.9c0,0.3,0,0.6,0.1,0.9c0.1,0.4,0.3,0.8,0.6,1.1
	c0.5,0.6,1,1.2,1.5,1.7L174.6,282.7z"/>
<path class="st1" d="M179.8,303.9c-0.5-0.4-1-0.7-1.5-1c-0.5-0.3-1-0.5-1.5-0.7c-0.8-0.2-1.7-0.2-2.5-0.3c-0.8,0-1.7-0.4-2.3-0.9
	L179.8,303.9z"/>
<path class="st1" d="M146.8,293.7c1,0,2,0.1,2.9,0.5c0.5,0.2,0.8,0.6,1.3,0.8c0.6,0.3,1.2,0.5,1.9,0.5L146.8,293.7z"/>
<path class="st1" d="M160.5,297.7c-0.2-0.1-0.5-0.1-0.7,0.2c-0.2,0.2-0.3,0.5-0.5,0.7c-0.4,0.3-0.9,0.5-1.5,0.5L160.5,297.7z"/>
<path class="st1" d="M166.2,276.8l1,0.5c1,0.5,1.9,1.1,2.8,1.7L166.2,276.8z"/>
<path class="st1" d="M177,286.1c0.6-0.1,1.2,0.5,1.3,1.1c0,0.6,0.1,1.3,0.2,1.9c0.2,0.5,0.5,1,0.9,1.4L177,286.1z"/>
<path class="st1" d="M187.6,287.2c0.6,1.7-0.6,3.5-0.3,5.3c0.1,0.5,0.3,1,0.5,1.6c0.3,1.4-0.2,2.9-1.1,4L187.6,287.2z"/>
<g class="st6">
	<path d="M206.2,393c0,0-21.1-0.9-23.3-42.1c-2.2-41.2,19.7-48.2,19.7-48.2s7-3.9,10-4.1c3.1-0.2,13.4,0.8,13.4,0.8l-11.4-2.2
		c0,0,16-6.1,20.8-6.6l-17.3,3.6c0,0-0.3-9.6,3.9-12.8c0,0-3.5-0.3-5.4,6.6c-1.1,4-4,7.3-7.9,8.9c-6.4,2.5-15.3,6.4-17.3,9.8
		c0,0-3.7,3.9-3.2-6.3c0.5-10.2,3.3-18.8,4.2-19.1c0,0,7.6-8.1,18.4-8.6c0,0-6.3-2.5-16.8,5.4c0,0-0.9-4,3.1-8.7
		c4-4.7,10.2-14.6,16.9-15.7c0,0-9.4-0.6-16.9,11.6c0,0-2.8,1.8-3-2.8c-0.3-3.5-0.9-6.9-1.9-10.2c0,0-2.3,10.5,2.5,15.2
		c0,0-9.2,11.9-8.8,25.3c0,0-2.8,6.1-3.9-1.1c0,0-0.6-9.8-1.8-18.2c-1-6.8,0.9-13.7,5.2-19.1c2-2.5,3.4-5,2.7-6.3l-10.6,12.7
		c0,0-8.9-20.7-15.4-25.2s-7.3-5.4-7.3-5.4l10.5,12.3l-13.1-4.6l13.1,6.1c0,0,6.1,5,9.6,18.5c3.5,13.5,3.8,22,3.8,22
		s-18.8-14.9-22.3-14.4l12.1,9.2c6.7,5.1,10.8,12.7,11.4,21.1l0,0c0,0-23.5-6-29.1-7.1l-10.7-11l8.1,10.4l-16.7-0.2l-9.6-6.8
		c0,0,7.5,6.3,6.8,6.7s-11.8,0.9-11.8,0.9s28.1-0.2,31.2,1.9c3.1,2,10,2.8,10,2.8l-19.9,3l23.7-1.7c0,0,17.9,3.3,18.9,8.8
		c0,0-3.6,9.5-6.1,13.3c-2,3.1-6.1,13.3-6.9,22.2s-1.9,22.6,1.1,31c3.1,8.4,4.2,13.1,2.7,15.7c-1.5,2.5-3,5.8,2,6.4
		s27.1-0.3,27.1-0.3S207.5,397.9,206.2,393z"/>
	<path class="st7" d="M194.4,388.5c-2.2-1.1-4.7-1.4-7.2-0.9c-3.6,0.6-7.3,0.7-11,0.3L194.4,388.5z"/>
	<path class="st7" d="M181.2,339.9c0,0-1,15.9,0.8,19L181.2,339.9z"/>
	<path class="st7" d="M177.5,358.9c0,0,1.3,14.9,2.2,17.8C180.6,379.6,177.5,358.9,177.5,358.9z"/>
	<path class="st7" d="M176.3,322.4c-0.9,0.3-4.8,8.3-4.1,10.6C172.9,335.3,176.3,322.4,176.3,322.4z"/>
	<path class="st7" d="M186.2,314.2c-0.4,0.2-2.2,4.8-1.9,6.1C184.6,321.6,186.2,314.2,186.2,314.2z"/>
	<path class="st7" d="M169.2,340.8c0.5,3.8,0.6,7.5,0.4,11.3c-0.2,2.9-0.2,5.7,0.1,8.6L169.2,340.8z"/>
	<path class="st7" d="M218.2,287.1c-0.5,0.7-0.8,1.5-0.8,2.3c0,0.8,0.1,1.7,0,2.5c-0.1,0.8-0.5,1.9-1.4,2L218.2,287.1z"/>
	<path class="st7" d="M203.2,259.7c-1.1,1.1-2.1,2.3-2.9,3.6c-0.2,0.4-0.5,0.8-0.8,1.2c-0.5,0.5-1,0.9-1.6,1.3c-1.3,1-2.2,2.4-2.6,4
		L203.2,259.7z"/>
	<path class="st7" d="M160.8,236c0.3,0.5,0.6,1,1,1.4s0.8,0.6,1.1,1c0.3,0.3,0.5,0.7,0.7,1.1c0.9,1.3,1.9,2.6,3,3.8L160.8,236z"/>
	<path class="st7" d="M180.4,259.4c-0.6,0.5-1,1.4-0.9,2.2c0.1,0.8,0.1,1.7-0.2,2.4c-0.1,0.4-0.4,0.6-0.5,1
		c-0.2,0.6-0.3,1.3-0.2,1.9c0,0.7,0,1.5,0.1,2.2c-0.1,0.9,0.2,1.8,0.7,2.5L180.4,259.4z"/>
	<path d="M174.6,282.7c0.7,0.3,1.3,0.8,1.8,1.3c0.6,0.5,0.9,1.2,1.1,1.9c0,0.3,0,0.6,0.1,0.9c0.1,0.4,0.3,0.8,0.6,1.1
		c0.5,0.6,1,1.2,1.5,1.7L174.6,282.7z"/>
	<path class="st7" d="M179.8,303.9c-0.5-0.4-1-0.7-1.5-1c-0.5-0.3-1-0.5-1.5-0.7c-0.8-0.2-1.7-0.2-2.5-0.3c-0.8,0-1.7-0.4-2.3-0.9
		L179.8,303.9z"/>
	<path class="st7" d="M146.8,293.7c1,0,2,0.1,2.9,0.5c0.5,0.2,0.8,0.6,1.3,0.8c0.6,0.3,1.2,0.5,1.9,0.5L146.8,293.7z"/>
	<path class="st7" d="M160.5,297.7c-0.2-0.1-0.5-0.1-0.7,0.2c-0.2,0.2-0.3,0.5-0.5,0.7c-0.4,0.3-0.9,0.5-1.5,0.5L160.5,297.7z"/>
	<path class="st7" d="M166.2,276.8l1,0.5c1,0.5,1.9,1.1,2.8,1.7L166.2,276.8z"/>
	<path class="st7" d="M177,286.1c0.6-0.1,1.2,0.5,1.3,1.1c0,0.6,0.1,1.3,0.2,1.9c0.2,0.5,0.5,1,0.9,1.4L177,286.1z"/>
	<path class="st7" d="M187.6,287.2c0.6,1.7-0.6,3.5-0.3,5.3c0.1,0.5,0.3,1,0.5,1.6c0.3,1.4-0.2,2.9-1.1,4L187.6,287.2z"/>
</g>
<path class="st0" d="M288.6,576.4l-0.3,0.4c-0.3,0.5-1,1.5-2,2.8l-3.7-3.1L282,576C284.3,575.5,286.5,575.7,288.6,576.4z"/>
<path class="st0" d="M298.8,526.8c0,0-11.5,23.5-31.2,36.9l-9.4-7.9C269.1,543.1,286.9,524.9,298.8,526.8z"/>
<path class="st0" d="M264.1,514.3c0,0,28.4-33.7,44.1-34c0,0-22,44.5-45.1,44.7L264.1,514.3z"/>
<path class="st0" d="M273.1,478.7l26.5-69.3c0,0,2.9,62-29.8,82.1L273.1,478.7z"/>
<path class="st0" d="M282.8,402.7c0,0,3.3-57.4,0.2-62c0,0,21.3,47.2,0.2,87.4L282.8,402.7z"/>
<path class="st0" d="M247.5,546.8l-17.1-14.4c-1.3-8.8-1.6-17.8-0.8-26.6C239.5,510,244.8,530.6,247.5,546.8z"/>
<path class="st0" d="M266.5,518.5c0,0-1.1-44-13.3-54.1c0,0-10.7,48.5,7.3,63.1L266.5,518.5z"/>
<path class="st0" d="M271.7,476.6l-13.3-73c0,0-14.3,60.4,14.2,86.2L271.7,476.6z"/>
<path class="st0" d="M272.2,403.7c0,0-30.8-48.6-30.3-54.1c0,0,4.4,51.6,42.3,76.4L272.2,403.7z"/>
<path class="st0" d="M275.3,389.1c0,0-29.6-69.3-42.4-74.7c0,0,40.5,19.4,44.7,72.6L275.3,389.1z"/>
<path class="st5" d="M263,525.4l-1.9-0.5c21.8-77.6,26.5-126.9,13.3-138.9l1.3-1.5C289.8,397.2,285.4,445.9,263,525.4z"/>
<path class="st5" d="M264.6,519.7c-0.3,1-0.6,2-0.8,2.9l0,0c-0.2,0.7-0.4,1.4-0.6,2.2c-0.1,0.2-0.1,0.4-0.2,0.6
	c-2.5,8.7-5.2,17.9-8.1,27.5l-1.7-1.5l0,0c2.6-8.4,5-16.4,7.2-24.1l0,0c0.5-1.6,0.9-3.3,1.4-4.9c0.1-0.4,0.2-0.7,0.3-1.1
	c0-0.1,0.1-0.3,0.1-0.4l1.4-0.7L264.6,519.7z"/>
<path class="st0" d="M325.3,597.8c0,0-21.2-38.6-36.6-42c0,0,12.8,48,35.4,52.7L325.3,597.8z"/>
<path class="st0" d="M323.5,561.2L311.1,488c0,0-15,60.2,13.1,86.4L323.5,561.2z"/>
<path class="st0" d="M329,484.8c0,0,8-57,12-60.9c0,0-30.1,42.1-17.4,85.6L329,484.8z"/>
<path class="st0" d="M362.3,639.4c0,0,0,1.4-0.2,3.9l-2.8-2.3l-0.3-0.2c0.1,0,0.2-0.1,0.2-0.1C360.2,640,361.2,639.6,362.3,639.4z"
	/>
<path class="st0" d="M360.8,596.3c0,0-1.7,19.1-10.7,36.9l-11.1-9.4C344.7,610.9,352.3,598.1,360.8,596.3z"/>
<path class="st0" d="M322.1,601.5c0,0,9.8-42.9,23.6-50.4c0,0,0.9,49.7-19.5,60.4L322.1,601.5z"/>
<path class="st0" d="M325.3,559.4l27.4-69c0,0,2.1,62-30.8,81.8L325.3,559.4z"/>
<path class="st0" d="M339.1,487.9c0,0,39.8-41.6,40.4-47.1c0,0-14.4,49.7-56.5,66.6L339.1,487.9z"/>
<path class="st0" d="M338.9,472.9c0,0,42.7-62.1,56.3-64.9c0,0-43.5,11-58.1,62.4L338.9,472.9z"/>
<path class="st5" d="M324.2,609.1l2-0.2c-6.2-80.4-1.1-129.7,14.2-138.8l-1-1.7C323.2,478.1,317.9,526.7,324.2,609.1z"/>
<path class="st5" d="M326.4,611.4c0,0.6,0.1,1.3,0.2,1.9l-2.2-1.8c-0.1-0.8-0.1-1.7-0.2-2.5c0-0.2,0-0.4,0-0.6l0,0
	c-0.1-0.8-0.1-1.5-0.2-2.3l0,0c-0.1-0.8-0.1-1.6-0.2-2.4c0-0.2,0-0.5,0-0.7l0,0l0.9,0.8l1.2,1c0,0.1,0,0.2,0,0.2c0,0.1,0,0.1,0,0.2
	c0.1,0.8,0.1,1.7,0.2,2.5c0,0.2,0,0.3,0,0.5C326.2,609.4,326.3,610.4,326.4,611.4z"/>
<path class="st0" d="M661.9,571.4c0,0,23.4,11.6,36.8,31.4l-7.9,9.4C678,601.2,659.9,583.3,661.9,571.4z"/>
</svg>
