<?xml version="1.0" encoding="utf-8"?>
<!-- Generator: Adobe Illustrator 19.0.0, SVG Export Plug-In . SVG Version: 6.00 Build 0)  -->
<svg version="1.1" id="Ebene_1" xmlns="http://www.w3.org/2000/svg" xmlns:xlink="http://www.w3.org/1999/xlink" x="0px" y="0px"
	 viewBox="230 -23.4 1071.1 838.4" style="enable-background:new 230 -23.4 1071.1 838.4;" xml:space="preserve">
<style type="text/css">
	.st0{fill:#F86D70;}
	.st1{opacity:0.15;enable-background:new    ;}
	.st2{fill:#FBBEBE;}
	.st3{opacity:5.000000e-002;enable-background:new    ;}
	.st4{fill:#6C63FF;}
	.st5{opacity:0.1;enable-background:new    ;}
	.st6{fill:#2F2E41;}
</style>
<title>teddy bear</title>
<path class="st0" d="M519.8,670.7l21.6,35.2c0,0,51,22.7,113.5-35.2s0-107.8,0-107.8l-76,19.6L519.8,670.7z"/>
<path class="st1" d="M519.8,670.7l21.6,35.2c0,0,51,22.7,113.5-35.2s0-107.8,0-107.8l-76,19.6L519.8,670.7z"/>
<path class="st2" d="M619.5,762.8l-29.7,12.5c-31.2,13.2-62.4,26.4-94.6,36.8c-8.8,2.9-19.5,5.2-26.5-0.9s-6.3-17.2-2.6-25.6
	c1.4-3.1,3.1-6.1,3.8-9.5c0.9-4.4-0.1-8.9-0.8-13.4c-1-6.8-1.2-13.9,0.7-20.5s6-12.8,12.1-16.1c4.5-2.4,10.8-2.8,14.2,1
	c2.8,3.1,2.8,7.8,4.8,11.5c2.7,4.8,8.7,7.1,14.2,6.8c5.5-0.2,10.7-2.5,15.8-4.8c40.1-17.7,80.4-35.4,117.5-58.9
	c6.4-4,12.7-8.3,19.5-11.7c6.5-3.3,13.3-5.9,20.4-7.7c0.8-0.3,1.6-0.3,2.4,0c0.8,0.6,1.2,1.6,1.2,2.5c1.5,9.8,3.1,19.5,4,29.3
	c0.7,7.7,3.3,21.3,0.3,28.6c-2.5,6-15.4,11-21,14.1c-8.4,4.6-16.9,8.8-25.6,12.8C639.5,754.3,629.5,758.5,619.5,762.8z"/>
<path class="st3" d="M619.5,762.8l-29.7,12.5c-31.2,13.2-62.4,26.4-94.6,36.8c-8.8,2.9-19.5,5.2-26.5-0.9s-6.3-17.2-2.6-25.6
	c1.4-3.1,3.1-6.1,3.8-9.5c0.9-4.4-0.1-8.9-0.8-13.4c-1-6.8-1.2-13.9,0.7-20.5s6-12.8,12.1-16.1c4.5-2.4,10.8-2.8,14.2,1
	c2.8,3.1,2.8,7.8,4.8,11.5c2.7,4.8,8.7,7.1,14.2,6.8c5.5-0.2,10.7-2.5,15.8-4.8c40.1-17.7,80.4-35.4,117.5-58.9
	c6.4-4,12.7-8.3,19.5-11.7c6.5-3.3,13.3-5.9,20.4-7.7c0.8-0.3,1.6-0.3,2.4,0c0.8,0.6,1.2,1.6,1.2,2.5c1.5,9.8,3.1,19.5,4,29.3
	c0.7,7.7,3.3,21.3,0.3,28.6c-2.5,6-15.4,11-21,14.1c-8.4,4.6-16.9,8.8-25.6,12.8C639.5,754.3,629.5,758.5,619.5,762.8z"/>
<path class="st2" d="M617.7,704.9c-5.7,5.1-11.8,9.7-16.7,15.5c-5.9,7.1-9.6,15.7-12.8,24.3c-3.4,9.2-6.4,18.5-8.8,27.9
	c-2.1,7.9-3.9,16.1-8.5,22.8s-12.8,11.8-20.7,10c-7-1.5-11.9-7.7-15.1-14.1s-5.2-13.4-9.4-19.2c-4.6-6.4-11.9-11.4-14.1-19.1
	c-2.3-8.1,1.9-17,8.4-22.2s15-7.5,23.3-8.7c0.9-0.1,1.8-0.3,2.6-0.8c1.8-1.2,2-3.8,1.9-5.9c-0.6-30.8,2.6-61.6,9.3-91.7
	c2-9,4.4-18,8.7-26c7.9-14.5,23.8-25.8,40.2-23.5c12,1.7,22.3,10.3,28.4,20.8s8.6,22.7,9.9,34.8c1.4,12.1,4.9,31.5-0.9,42.6
	C636.9,684.6,628.1,695.6,617.7,704.9z"/>
<path class="st2" d="M808.1,269.3c-1,7.8-1.8,16.3,2.5,22.9c2.6,4,6.7,6.8,10.8,9.2c5.9,3.6,12.1,6.8,18.4,9.8
	c0.7,0.3,1.4,0.7,1.8,1.4c0.3,0.9,0.3,1.8-0.1,2.7c-7.4,25.3-16.6,50-27.4,74.1c-0.5,1.4-1.4,2.7-2.5,3.8c-1.2,0.8-2.7,1.4-4.2,1.5
	c-29.5,5.5-60-0.1-85.8-15.6c-3.1-1.8-6-4-8.6-6.5c-2.4-2.5-4.4-5.3-6-8.4c-12-21.8-10.6-48.2-8.9-73c7,0.7,14,0.2,20.8-1.4
	c3.4-0.7,6.6-2,9.5-3.8c5.7-3.8,8.7-10.4,11.2-16.8c3.8-9.8,7-19.9,9.4-30.1c0.9-3.7,41.9,3.7,46,4.6c4.5,1,15.4,1.7,16.9,7
	C813.3,255.3,808.7,264.4,808.1,269.3z"/>
<path class="st3" d="M808.1,269.3c-1,7.8-1.8,16.3,2.5,22.9c2.6,4,6.7,6.8,10.8,9.2c5.9,3.6,12.1,6.8,18.4,9.8
	c0.7,0.3,1.4,0.7,1.8,1.4c0.3,0.9,0.3,1.8-0.1,2.7c-7.4,25.3-16.6,50-27.4,74.1c-0.5,1.4-1.4,2.7-2.5,3.8c-1.2,0.8-2.7,1.4-4.2,1.5
	c-29.5,5.5-60-0.1-85.8-15.6c-3.1-1.8-6-4-8.6-6.5c-2.4-2.5-4.4-5.3-6-8.4c-12-21.8-10.6-48.2-8.9-73c7,0.7,14,0.2,20.8-1.4
	c3.4-0.7,6.6-2,9.5-3.8c5.7-3.8,8.7-10.4,11.2-16.8c3.8-9.8,7-19.9,9.4-30.1c0.9-3.7,41.9,3.7,46,4.6c4.5,1,15.4,1.7,16.9,7
	C813.3,255.3,808.7,264.4,808.1,269.3z"/>
<path class="st0" d="M655.1,479.6c26-1.3,51.4,7.5,75.8,16.8s49.8,18.2,75.8,20c1.8-6.7,3.8-13.4,6.2-19.8
	c2.4-6.5,5.5-12.7,9.3-18.5c3.2-4.7,6.9-9.1,9.3-14.2c4.7-10.1,3.8-21.8,3.3-32.9s4.9-46.7,11.3-55.8c-4.5-6.9-9.1-3.4-13.6-10.2
	c-2.4-3.7-11.5,5.8-15,3.2c-3.7-2.8-8.3-4.1-12.9-5.1c-25.3-6-51.9-6.4-76.4-14.9c-6.5-2.2-13.4-5-19.9-2.9c-2.6,1-4.9,2.3-7.1,4
	l-15.3,10.9c-1.4,1-2.3,0.9-3,2.5c-3.7,8.6-6,17.7-6.8,27c-1,10.8-0.1,21.8-1.3,32.6c-1.5,12.3-4.7,24.4-9.5,35.9
	C662.1,465.4,658.8,472.6,655.1,479.6z"/>
<circle class="st2" cx="787.6" cy="211.2" r="62.4"/>
<path class="st0" d="M705.5,286c0.5,18.7,1.6,37.3,3.2,55.9c0.3,3.8,0.8,8,3.7,10.7c-6.2,4.1-13.3,6.7-20.6,7.6
	c-4.5-12.2-9-24.9-8.2-37.9c0.6-10.1,4.3-19.7,5.2-29.7c0.3-2.9-0.5-6.9,2.5-8.4C692.3,283.6,705.5,285.9,705.5,286z"/>
<path class="st0" d="M669.8,470.3c-4.3,0.4-8,3-11.5,5.5c-41.7,30.3-78.7,67.4-107.5,110.2c-7.2,10.7-13.9,21.7-21.5,32
	c-20.3,27.5-46.8,49.6-73.9,70.3c7.1-0.3,15-0.1,22.1-0.4c3.9-0.2,7.9-0.3,11.7,0.6s7.5,3.1,9.3,6.5c1.7,3.2,2.1,7.7,5.5,8.9
	c1.5,0.4,3.1,0.4,4.7,0.1c11.4-1.6,23,0.3,33.3,5.3c0.4-8.6,1.7-17.1,3.8-25.4c1.2-4.8,2.8-9.5,4.4-14.1
	c3.6-10.5,7.4-20.9,13.3-30.3c6.6-10.6,15.6-19.5,26.3-25.9c3-2,6.3-3.3,9.8-4c8.8-1.3,17.3,5.1,21.4,13s4.7,17.1,5.2,26
	c0.7,10.9,1.3,21.8,2,32.7c0.2,4,0.5,8.1,2.8,11.4c1.7-3.4,5.9-4,9.2-5.9c6.2-3.7,13.2-7.5,20.3-6.1c7.9,1.6,13,9.2,16.5,16.4
	c6.1,12.7,10.1,26.3,11.8,40.3c14.8-7.9,24.3-22.9,27.8-39.3c2-9.3,1.7-18.9,3.4-28.2c2.3-12.2,8-23.5,16.4-32.5
	c18.6-20,48.3-26.8,66.6-47c2.4-2.7,4.7-5.7,5.1-9.3c0.5-4.3-1.7-8.4-1.8-12.7c-0.2-7.3,5.5-13.2,10-18.8c4.4-5.4,8.1-11.4,11-17.7
	c1.5-3.3,2.9-7,2.6-10.6s-2.7-7.4-6.3-8.2c-6.6-1.3-13.2,7.3-19.2,4.1c-1.5-1-2.7-2.3-3.6-3.9c-3.8-6.2-6.4-13-7.8-20.1
	c-15-5.5-30.8-7.4-46.3-11.3c-6.6-1.7-13-3.9-19.5-5.8C708.6,470.7,689,470.6,669.8,470.3z"/>
<path class="st0" d="M655.1,479.6c26-1.3,51.4,7.5,75.8,16.8s49.8,18.2,75.8,20c1.8-6.7,3.8-13.4,6.2-19.8c-2.3-1.3-5.2-2.3-7.2-3.2
	c-12.4-6-25-11.2-38-15.7c-26.1-9.1-53.2-15.1-80.7-18c-7.2-0.8-14.5-1.3-21.8-1.6C662.2,465.4,658.8,472.6,655.1,479.6z"/>
<path class="st1" d="M655.1,479.6c26-1.3,51.4,7.5,75.8,16.8s49.8,18.2,75.8,20c1.8-6.7,3.8-13.4,6.2-19.8c-2.3-1.3-5.2-2.3-7.2-3.2
	c-12.4-6-25-11.2-38-15.7c-26.1-9.1-53.2-15.1-80.7-18c-7.2-0.8-14.5-1.3-21.8-1.6C662.2,465.4,658.8,472.6,655.1,479.6z"/>
<path class="st2" d="M837.8,313.5c26.1-1.1,48.2,19.2,49.4,45.3c0.1,6.1-0.4,12.3-1.7,18.3c-5.9,32.3-18,65-10.8,96.9
	c2.1,9.4,5.9,18.6,6.6,28.2c0.2,4.7,0.1,9.4-0.4,14l-3.8,46.1c5.4,6,12.7,11.4,18.6,17s11.3,12.1,13.2,20c0.9,4.2,1.1,8.4,0.8,12.7
	c-0.1,2.2-0.3,4.5-1.9,6s-4.8,1.1-5.2-1c-1.1,2.8-5.5,2.6-7.5,0.3s-2.3-5.5-2.9-8.5c-1-5-2.9-9.7-5.7-13.9c-1.3,1.9-1,4.3-1.3,6.6
	s-1.6,4.9-3.9,4.8c-2.7,0-3.8-3.5-4.2-6.3c-0.5-3.8-1.3-7.7-3.4-11s-5.5-5.9-9.4-5.9c1.2,0.4,2.1,1.3,2.3,2.5
	c-3.9,1.5-8.2,1.9-12.3,1.3c-2.4-0.3-4.7-1.1-6.7-2.5c-3.3-2.4-5.1-6.4-5.8-10.5s-0.3-8.2-0.3-12.3c0.2-17.1-4.8-33.8-9.8-50.1
	c-3.8-12.6-7.3-25-6.1-38.1c0.6-6.3,2.1-12.4,3-18.6c3.2-22.5-2-46.4,6.4-67.5c0.9-2.2,1.9-4.5,1.7-6.9c-0.4-2.1-1.4-4-2.8-5.6
	c-4.1-5.4-9-10.1-14.4-14.2c1.1-1.5,1.9-3.2,2.4-4.9C825.7,341.4,828.5,325.2,837.8,313.5z"/>
<path class="st0" d="M844.1,323.1c-2,8.2-3.6,16.5-4.6,24.9c-1.8,17.3,1.9,16-2.6,32.8c-11.1-5.8-23.5,7.3-34.6,1.5
	c-1-0.5-2.2-1.3-2.4-2.4c0-1.1,0.4-2.1,1.1-2.8c6.8-9.3,12.3-19.5,16.2-30.4c3.1-8.6,5.3-17.5,9.2-25.7c2.3-4.9,5.5-9.6,10.1-12.3
	c2.6-1.5,13-4.3,14,0.7c0.3,1.5-3,4.3-3.8,5.6C845.6,317.6,844.7,320.3,844.1,323.1z"/>
<circle class="st4" cx="818.3" cy="361.6" r="43.1"/>
<circle class="st4" cx="945.9" cy="361.6" r="43.1"/>
<ellipse class="st5" cx="935.4" cy="367.4" rx="32.6" ry="37.4"/>
<ellipse class="st5" cx="828.7" cy="367.4" rx="32.6" ry="37.4"/>
<path class="st4" d="M1035.6,537.4c-1.2,13.4-12,26.5-25.5,26.6c-6,0-11.7-2.3-17-5.1c-4.6-2.4-9.2-5.1-12.5-9.1
	c-0.5-0.6-0.9-1.2-1.4-1.8c-5.3-7.6-6.5-17.6-11.1-25.8c-8.3-14.7-26.2-20.6-42.6-24.5c-17.3-4.1-34.8-7.3-52.5-9.6
	c-12-1.6-24.2-2.7-36.2-1.2c-25.6,3.2-48.7,17.8-74.2,21.2c-0.9,0.1-1.7,0.2-2.6,0.3c-8,0.8-16.1,0.4-24.1,1.1
	c-13.3,1.2-26.5,5.6-39.9,4.7s-27.8-9.6-28.8-23c-0.7-9.4,5.7-18.2,13.8-23.1s17.7-6.5,27-7.8c24.8-3.6,50.2-5.9,73-16.1
	c8.2-3.7,15.9-8.3,24.3-11.3c3.8-1.3,7.6-2.2,11.6-2.7c5-0.6,10,0.1,14.6,1.9l-12,4.6l117.2-8.3l4.6-0.3c5.5-0.4,11.2-0.8,16.6,0.5
	c9.3,2.1,17,8.8,22.9,16.4s10.3,16.1,15.9,24c7.8,11,17.7,20.4,25.7,31.2C1030.5,510.9,1036.8,524,1035.6,537.4z"/>
<path class="st5" d="M981,520.1c0.1,9.3-0.5,18.7-1.7,27.9c-5.3-7.6-6.5-17.6-11.1-25.8c-8.3-14.7-26.2-20.6-42.6-24.5
	c-17.3-4.1-34.8-7.3-52.5-9.6c-12-1.6-24.2-2.7-36.2-1.2c-25.6,3.2-48.7,17.8-74.2,21.2c5.5-39.6,25.5-64.9,54.5-77.9
	c15.7-7,34-10.4,54.1-10.4c24.7,0,47.4,1,65.7,8.6C963.7,439.4,981,464.3,981,520.1z"/>
<path class="st6" d="M975.4,524.1c0,21.1-2.5,37.7-7.2,50.5c-11.3,31.6-35.2,41.5-64.9,44.5c-10,1-20.6,1.2-31.7,1.2
	c-13.9,0.1-27.8-1.8-41.1-5.7c-24.8-7.5-45.1-22.4-55.4-45.6c-5.6-12.5-8.2-27.5-7.2-45c4.1-66.8,46.4-96.3,103.7-96.3
	S975.4,433.7,975.4,524.1z"/>
<circle class="st5" cx="882.1" cy="407.1" r="80.9"/>
<circle class="st6" cx="882.1" cy="402.4" r="80.9"/>
<circle class="st2" cx="871.7" cy="376.1" r="4.1"/>
<circle class="st2" cx="891.8" cy="376.1" r="4.1"/>
<ellipse class="st5" cx="882.1" cy="412.1" rx="42.2" ry="27.2"/>
<ellipse class="st4" cx="882.1" cy="412.1" rx="39.9" ry="25.7"/>
<path class="st5" d="M830.6,614.7c-24.8-7.5-45.1-22.4-55.4-45.6c3.5-1.2,7.2-1.8,10.9-1.8C807.2,567.2,825,587.2,830.6,614.7z"/>
<path class="st6" d="M830.1,637.2c0,36.4-20.8,65.9-46.4,65.9c-17.3,0-32.5-13.5-40.4-33.6c-4-10.3-6-21.3-6-32.3
	c0-36.4,20.8-65.9,46.4-65.9c23.1,0,42.3,24,45.8,55.5C829.9,630.3,830.1,633.8,830.1,637.2z"/>
<path class="st5" d="M830.1,637.2c0,36.4-20.8,65.9-46.4,65.9c-17.3,0-32.5-13.5-40.4-33.6c1.3-26.3,27.9-47.4,60.5-47.4
	c8.8,0,17.5,1.5,25.8,4.6C829.9,630.3,830.1,633.7,830.1,637.2z"/>
<ellipse class="st4" cx="807.3" cy="673.8" rx="60.5" ry="49.3"/>
<ellipse class="st6" cx="811.9" cy="677" rx="56" ry="46.2"/>
<ellipse class="st5" cx="831.8" cy="659.1" rx="9.8" ry="12.2"/>
<ellipse class="st4" cx="831.8" cy="659.1" rx="8.3" ry="10.3"/>
<ellipse class="st5" cx="802.9" cy="669.4" rx="10.3" ry="10.9"/>
<ellipse class="st4" cx="802.9" cy="669.4" rx="8.9" ry="9.5"/>
<ellipse class="st5" cx="787" cy="694.2" rx="10.9" ry="8.9"/>
<ellipse class="st4" cx="787" cy="694.2" rx="9.5" ry="7.7"/>
<ellipse transform="matrix(-0.6562 -0.7546 0.7546 -0.6562 842.6155 1788.7255)" class="st5" cx="828.8" cy="702.4" rx="13.1" ry="25"/>
<ellipse transform="matrix(-0.6562 -0.7546 0.7546 -0.6562 842.6155 1788.7255)" class="st4" cx="828.8" cy="702.4" rx="12.2" ry="23.3"/>
<path class="st5" d="M968.2,574.6c-11.3,31.6-35.2,41.5-64.9,44.5c4.8-29.1,23.2-50.8,45.1-50.8
	C955.6,568.5,962.4,570.6,968.2,574.6z"/>
<path class="st6" d="M998.4,637.2c0.1,12-2.3,24-7.1,35c-8.2,18.5-22.7,30.9-39.3,30.9c-25.6,0-46.4-29.5-46.4-65.9
	c0-3.4,0.2-6.8,0.5-10.3c3.5-31.5,22.7-55.6,45.8-55.6C977.7,571.4,998.4,600.8,998.4,637.2z"/>
<path class="st5" d="M991.3,672.1v0.2c-8.2,18.5-22.7,30.9-39.3,30.9c-25.6,0-46.4-29.5-46.4-65.9c0-3.4,0.2-6.8,0.5-10.3
	c7.9-2.8,16.2-4.2,24.5-4.2C964.2,622.8,991.3,644.8,991.3,672.1z"/>
<ellipse class="st4" cx="928.4" cy="673.8" rx="60.5" ry="49.3"/>
<ellipse class="st6" cx="923.3" cy="677" rx="55.4" ry="46.2"/>
<ellipse class="st5" cx="903.9" cy="659.1" rx="9.9" ry="12.4"/>
<ellipse class="st4" cx="903.9" cy="659.1" rx="8.3" ry="10.3"/>
<ellipse class="st5" cx="932.9" cy="669.4" rx="10.3" ry="10.9"/>
<ellipse class="st4" cx="932.9" cy="669.4" rx="8.9" ry="9.5"/>
<ellipse class="st5" cx="948.8" cy="694.2" rx="10.9" ry="8.9"/>
<ellipse class="st4" cx="948.8" cy="694.2" rx="9.5" ry="7.7"/>
<ellipse transform="matrix(-0.7546 -0.6562 0.6562 -0.7546 1130.3597 1827.8186)" class="st5" cx="907" cy="702.5" rx="25" ry="13.1"/>
<ellipse transform="matrix(-0.7546 -0.6562 0.6562 -0.7546 1130.3597 1827.8186)" class="st4" cx="907" cy="702.5" rx="23.3" ry="12.2"/>
<path class="st2" d="M694,288c-10-3.4-20.9-3.4-30.9-0.2c-4.9,1.6-9.8,4.2-12.7,8.5c-2.3,3.4-3.2,7.6-4,11.7
	c-2.5,12.3-4.9,24.7-7.2,37c-2.7,14.3-0.4,28.9,2.7,43s5.6,28.7,7.4,43.2c0.8,5.5,1.1,11.1,0.8,16.7c-0.5,6.3-2.4,12.6-1.4,18.8
	c1.9,11.4,12.6,18.9,22.4,25.1c3.6,10.7,15,16.5,25,21.8c21,11.1,41,23.8,59.9,38.1c6.7,5,13.3,10.3,20.9,13.9
	c7.1,3.3,14.8,5,22.5,6.7l24,5.3c7.1-1,15-3,21.5-6.2c3.8-1.9,8-5.3,7-9.4c-0.7-2.8-3.4-4.4-5.9-5.7c-8-4.2-16-8.5-24.8-10.6
	c-4.8-1.2-9.8-1.7-14.7-2.6c-5.3-0.9-10.5-2.5-15.5-4.5c-12.4-5.4-22.5-14.8-32.3-24.2c-9.3-8.8-17.5-18.1-26.3-27.3
	c-4.1-4-8.4-7.7-13-11.2c-9.9-8.2-19.3-16.9-28.3-26.1c-5-5.2-1.9-14.2-1.4-21.4c0.7-10.5-1.7-20.9-3.7-31.3
	c-1-5.2-1.9-10.4-1.6-15.6c0.5-8,3.8-15.5,6.3-23.1c5.4-16.7,6.7-34.4,3.8-51.7C693.5,300.3,692.4,294.1,694,288z"/>
<path class="st6" d="M841.3,209c17.3-3.2,25.7-25.1,20.7-42.1s-19.1-29.3-33.1-40c-22.9-17.4-48.7-33.2-77.4-35.3
	s-60.4,13.7-68,41.4c-4.9,17.9,0.6,37.6-4.9,55.4c-8,25.7-36.5,40.1-46.9,64.9c-12.3,29.5,4.3,62.2,8.8,93.9
	c8.1,57-30.1,117.1-85.1,134c20.3,2.8,41,5.2,61.4,2.6c20.3-2.6,40.7-10.8,54.3-26.1c6.5-7.3,11.6-16.3,20.3-20.7
	c5.2-2.6,11.1-3.2,16.8-4.5c32.8-7.2,58.9-38.3,60.1-71.9c0.9-24.4-9.9-47.7-11.8-72.1c-2.2-26.9,7.2-53.4,24.1-74.1
	C802.8,187,813.6,214.2,841.3,209z"/>
<path class="st1" d="M862,168.1c-5-16.9-19.1-29.4-33.1-40c-7.7-5.9-15.6-11.4-23.8-16.4c2.3,1.7,4.6,3.4,6.8,5.1
	c14,10.7,28.1,23.1,33.1,40s-3.4,38.8-20.7,42.1c-27.7,5.2-38.5-22-60.8,5.5c-16.9,20.8-26.3,47.3-24.1,74.1
	c2,24.3,12.7,47.7,11.8,72.1c-1.2,33.6-27.2,64.7-60.1,71.9c-5.7,1.2-11.6,1.9-16.8,4.5c-8.7,4.4-13.9,13.4-20.3,20.7
	c-13.6,15.4-34,23.5-54.3,26.1c-8.5,1-17,1.4-25.6,1c-6,3.1-12.3,5.7-18.8,7.7c20.3,2.8,41,5.3,61.4,2.7
	c20.3-2.6,40.7-10.8,54.3-26.1c6.5-7.3,11.6-16.3,20.3-20.6c5.2-2.6,11.1-3.2,16.8-4.5c32.8-7.2,58.9-38.3,60.1-71.9
	c0.9-24.4-9.9-47.7-11.8-72.1c-2.2-26.9,7.2-53.4,24.1-74.1c22.4-27.5,33.2-0.4,60.8-5.5C858.6,206.9,867.1,185,862,168.1z"/>
</svg>
