<?xml version="1.0" encoding="utf-8"?>
<!-- Generator: Adobe Illustrator 19.0.0, SVG Export Plug-In . SVG Version: 6.00 Build 0)  -->
<svg version="1.1" id="Ebene_1" xmlns="http://www.w3.org/2000/svg" xmlns:xlink="http://www.w3.org/1999/xlink" x="0px" y="0px"
	 viewBox="222 -30.1 1055.5 852.1" style="enable-background:new 222 -30.1 1055.5 852.1;" xml:space="preserve">
<style type="text/css">
	.st0{fill:#3F3D56;}
	.st1{fill:#FF6584;}
	.st2{opacity:0.1;enable-background:new    ;}
	.st3{fill:#6C63FF;}
</style>
<title>Waiting _for_you</title>
<ellipse class="st0" cx="724.4" cy="791.8" rx="250.3" ry="8.9"/>
<circle class="st1" cx="607.7" cy="302.8" r="89.6"/>
<path class="st0" d="M639.7,792.4c0,0,62.7-167.1,28.1-269.9s-61.8-98.8-61.8-98.8s-46.6-12-104.4,23.3s-73.1,45.8-106,31.3
	s-39.4-36.9-119.7-34.5c0,0,42.6-23.3,84.3-2.4c41.8,20.9,69.9,32.1,112.5,0s101.2-73.9,158.2-49c0,0-41.8-41-55.4-41
	s-77.9-6.4-98.8-28.1c0,0-29.7-20.9-82.7,30.5s-40.2,51.4-87.6,47.4S222,374,222,374s55.4,22.5,89.2,11.2s62.7-53.8,92.4-68.3
	c29.7-14.5,47.4-33.7,87.6-12.9c0,0-16.9-69.1-49-63.5s15.3-16.1,15.3-16.1s-8.8-117.3-25.7-125.3s-6.4-28.9-37.8-32.9
	c0,0,38.6-4.8,45.8,21.7s57,169.5,57,169.5s30.5,61,64.3,46.6c33.7-14.5-12.9-95.6-12.9-95.6L490.3,182c0,0,43.4-1.6,69.9,23.3
	c26.5,24.9,28.1,105.2,28.1,105.2s66.7,9.6,82.7,45.8c0,0,10.4-32.1-9.6-51.4c-5-4.8-10.3-13.2-15.4-23.1
	c-19.4-37.7-26-80.7-19.9-122.7c3-20.6,4.8-40.6,1.6-45.4c-7.2-10.4-37.8-74.7-40.2-91.6s2.4-52.2,2.4-52.2s0.8,43.4,10.4,57
	s36.9,81.1,36.9,81.1s0,85.1,22.5,126.9c22.5,41.8,65.9,88.4,63.5,118.9v17.7c0,0,48.2-45.8,45-61s-7.2-51.4-37.8-73.1
	s-50.6-56.2-28.9-106s21.7-58.6,21.7-58.6l-14.5,61.8c0,0-8,55.4,14.5,74.7s52.2,54.6,52.2,54.6L769,148.3l20.9,45.8
	c0,0,45-57.8,98-77.1s85.9-86.7,85.9-86.7l45-35.3L981.8,39c0,0-11.2,52.2-74.7,89.2s-104.4,91.6-106.8,125.3s-4.8,63.5-4.8,63.5
	s118.9-4,145.4-56.2S969.8,104.9,995.5,88s73.9-37.8,73.9-37.8l-53.8,44.2c0,0-11.2,36.1-8.8,61.8s-17.7,49.8-17.7,49.8l-15.3,45
	l-16.9,38.6c0,0,69.1,1.6,105.2,42.6s126.1,53,126.1,53l-50.6,13.7c0,0-48.2-16.1-94-45.8c-45.8-29.7-41-56.2-98-26.5
	s-134.9,54.6-134.9,54.6s45-20.9,126.1,29.7s-40.2-8.8-76.3,10.4s-53-4.8-67.5,43.4s-41,179.9-10.4,253.8l30.5,73.9H639.7z"/>
<path class="st2" d="M942.1,260.7c-21.5,42.4-104,53-134.2,55.5c-0.8,10.9-1.4,17.8-1.4,17.8s118.9-4,145.4-56.2
	s28.9-155.8,54.6-172.7c2.7-1.8,5.7-3.6,8.9-5.5c0.9-3.2,1.5-5.2,1.5-5.2l53.8-44.2c0,0-48.2,20.9-73.9,37.8
	S968.6,208.5,942.1,260.7z"/>
<path class="st2" d="M803.6,179.6c-0.2,19.8-2.7,31.5-2.7,31.5s45-57.8,98-77.1c3.1-2,6.3-3.9,9.6-5.8C971.8,91.2,983.1,39,983.1,39
	L1020-5.2l-45,35.3c0,0-32.9,67.5-85.9,86.7C853,130.1,820.6,161.1,803.6,179.6z"/>
<path class="st2" d="M734.2,370.9v17.7c0,0,48.2-45.8,45-61c-2.5-11.7-5.4-35.6-20.3-55.8c6.7,15.3,8.8,30.3,10.5,38.8
	c2.3,10.9-21.8,37.6-35.7,51.8C734.2,365.1,734.4,368.1,734.2,370.9z"/>
<path class="st2" d="M669.5,249.7c0.4,0.8,0.8,1.6,1.2,2.4c12.3,22.9,30.9,47.2,44.8,69.5C704.3,299.5,684.7,274.2,669.5,249.7z"/>
<path class="st2" d="M708.7,215.5c-6.5-15.9-7.5-34.8-0.1-56.9c-0.1-8,0.4-16,1.4-24l12.6-54.1c-2.3,7.8-7.7,22.9-19.9,50.9
	C687.3,166.9,693.1,194.6,708.7,215.5z"/>
<path class="st2" d="M1063.4,332.2c-25.1-28.4-66-37.9-88.7-41l-6.8,15.5c0,0,69.1,1.6,105.2,42.6c20,22.7,56.6,36.5,85.3,44.3
	l31.1-8.4C1189.5,385.2,1099.5,373.2,1063.4,332.2z"/>
<path class="st2" d="M571.9,321.1c33.7-14.5-12.9-95.6-12.9-95.6l-1.3-0.6c11.6,24.5,28.5,68.8,4.4,79.1
	c-22.5,9.7-43.6-14.4-55.2-31.4c0.4,1.2,0.6,1.9,0.6,1.9S538.2,335.6,571.9,321.1z"/>
<path class="st2" d="M682,373.4c0,0,10.2-31.3-8.9-50.7c4.7,16.7-0.8,33.6-0.8,33.6c-12.4-28-55.1-40.1-73.8-44.1
	c0.7,9.3,0.8,15.4,0.8,15.4S665.9,337.2,682,373.4z"/>
<path class="st2" d="M722.6,80.5c1.8-6.1,1.8-7.7,1.8-7.7L722.6,80.5z"/>
<path class="st2" d="M321.6,402.4c0.2-0.1,0.3-0.1,0.5-0.2c33.7-11.2,62.7-53.8,92.4-68.3c29.7-14.5,47.4-33.7,87.6-12.9
	c0,0-7-28.8-20.6-47.7c4.5,9.9,8.2,20.1,10.9,30.6c-40.2-20.9-57.8-1.6-87.6,12.9c-29.7,14.5-58.6,57-92.4,68.3S223.2,374,223.2,374
	s36.9,23.3,84.3,27.3C313,401.7,317.6,402.1,321.6,402.4z"/>
<path class="st2" d="M656.5,792.4c14.7-45.1,50.1-169.9,22.2-252.8c-12-35.8-23.2-58.7-32.6-73.2c7.1,13.8,14.8,32,22.9,56.2
	c34.5,102.8-28.1,269.9-28.1,269.9H656.5z"/>
<path class="st2" d="M342.8,450.3c9.8,1,19.4,3.8,28.3,8.2c33,16.5,57.5,27,87.3,14.8c6.8-3.6,14.4-8,23.1-13.3c0.7-0.5,1.4-1,2-1.5
	c42.6-32.1,101.2-73.9,158.2-49c0,0-11.5-11.3-24.4-22c-52.3-12.8-104.6,24.6-143.5,54c-42.6,32.1-70.7,20.9-112.5,0
	s-84.3,2.4-84.3,2.4C308.1,442.9,328.1,445.7,342.8,450.3z"/>
<path class="st2" d="M424.4,91.5c0.9,1.5,2,3,3.3,4.2C426.7,94.2,425.6,92.7,424.4,91.5z"/>
<path class="st2" d="M571.1,222.3c1.2,1.2,2.4,2.4,3.5,3.8c-3.5-8.5-7.9-15.8-13.2-20.8c-26.5-24.9-69.9-23.3-69.9-23.3l54.4,24.9
	C555.2,210.4,563.8,215.6,571.1,222.3z"/>
<path class="st2" d="M628.8,113.7c3.3,4.7,1.4,24.8-1.6,45.4c-6.1,42,0.5,85,19.9,122.7c2.6,5.1,5.4,10,8.6,14.7
	c-18.5-37.2-24.7-79.2-18.7-120.4c3-20.6,4.8-40.6,1.6-45.4c-7.2-10.4-37.8-74.7-40.2-91.6c-0.7-6.5-0.9-13.1-0.5-19.7
	c-6.2-17.7-6.8-49.6-6.8-49.6s-4.8,35.3-2.4,52.2S621.6,103.3,628.8,113.7z"/>
<path class="st2" d="M704.2,2.7c-0.3-1.6-0.8-3.1-1.5-4.6C702.7-1.9,703.4-0.2,704.2,2.7z"/>
<path class="st2" d="M420.5,83.6c7.1,0.9,15.2,3,21.4,8.1c-0.4-1.4-0.8-2.6-1-3.6c-7.2-26.5-45.8-21.7-45.8-21.7
	C412.5,68.6,417,76,420.5,83.6z"/>
<path class="st0" d="M620.1,758.1c5.7,21.2,25.3,34.3,25.3,34.3s10.3-21.2,4.6-42.4c-5.7-21.2-25.3-34.3-25.3-34.3
	S614.4,737,620.1,758.1z"/>
<path class="st3" d="M628.6,753.6c15.7,15.3,17.6,38.8,17.6,38.8s-23.6-1.3-39.3-16.6c-15.7-15.3-17.6-38.8-17.6-38.8
	S612.8,738.3,628.6,753.6z"/>
<path class="st3" d="M576.5,179.6c-1.4,21.9-18,38.7-18,38.7s-14.4-18.7-13-40.6c1.4-21.9,18-38.7,18-38.7S577.8,157.7,576.5,179.6z
	"/>
<path class="st3" d="M403.5,41.2c18.6,11.7,25.3,34.3,25.3,34.3s-23.3,3.6-41.9-8.1s-25.3-34.3-25.3-34.3S385,29.5,403.5,41.2z"/>
<path class="st3" d="M362.1,308.1c18.6,11.7,25.3,34.3,25.3,34.3s-23.3,3.6-41.9-8.1C327,322.6,320.2,300,320.2,300
	S343.6,296.4,362.1,308.1z"/>
<path class="st3" d="M460.8,410.4c18.6,11.7,25.3,34.3,25.3,34.3s-23.3,3.6-41.9-8.1s-25.3-34.3-25.3-34.3S442.3,398.7,460.8,410.4z
	"/>
<path class="st3" d="M739.3,80.2c-5.6,21.2-25.1,34.4-25.1,34.4s-10.5-21.1-4.9-42.4s25.1-34.4,25.1-34.4S744.9,59,739.3,80.2z"/>
<path class="st3" d="M915.7,96.8C909.2,117.7,889,130,889,130s-9.5-21.6-2.9-42.5s26.7-33.2,26.7-33.2S922.3,75.8,915.7,96.8z"/>
<path class="st3" d="M1106.5,329.6c-11.9,18.4-34.6,24.9-34.6,24.9s-3.4-23.4,8.5-41.8c11.9-18.4,34.6-24.9,34.6-24.9
	S1118.4,311.2,1106.5,329.6z"/>
</svg>
